<svg width="28" height="19" viewBox="0 0 28 19" fill="none" xmlns="http://www.w3.org/2000/svg">
<path id="Icon awesome-youtube" d="M26.7709 3.08467C26.6196 2.51483 26.3212 1.99475 25.9056 1.57652C25.49 1.1583 24.9718 0.856608 24.4029 0.701672C22.3149 0.138672 13.9419 0.138672 13.9419 0.138672C13.9419 0.138672 5.56793 0.138672 3.47993 0.701672C2.91124 0.85676 2.39326 1.15852 1.97785 1.57673C1.56245 1.99495 1.26419 2.51495 1.11293 3.08467C0.726818 5.22514 0.539354 7.3967 0.552934 9.57167C0.539354 11.7466 0.726818 13.9182 1.11293 16.0587C1.26537 16.6237 1.56467 17.1383 1.98041 17.5502C2.39615 17.962 2.91352 18.2565 3.47993 18.4037C5.56793 18.9667 13.9419 18.9667 13.9419 18.9667C13.9419 18.9667 22.3159 18.9667 24.4039 18.4037C24.9703 18.2565 25.4877 17.962 25.9035 17.5502C26.3192 17.1383 26.6185 16.6237 26.7709 16.0587C27.157 13.9182 27.3445 11.7466 27.3309 9.57167C27.3445 7.3967 27.157 5.22514 26.7709 3.08467V3.08467ZM11.2029 13.5537V5.59067L18.2029 9.57267L11.2029 13.5537Z" fill="#E5F4F2"/>
</svg>
