<svg width="22" height="23" viewBox="0 0 22 23" fill="none" xmlns="http://www.w3.org/2000/svg">
<path id="Icon awesome-instagram" d="M10.977 5.91927C9.8627 5.91927 8.77342 6.24969 7.84692 6.86877C6.92041 7.48784 6.19829 8.36775 5.77186 9.39723C5.34544 10.4267 5.23387 11.5595 5.45126 12.6524C5.66864 13.7453 6.20523 14.7492 6.99316 15.5371C7.78109 16.325 8.78497 16.8616 9.87786 17.079C10.9707 17.2964 12.1036 17.1848 13.133 16.7584C14.1625 16.332 15.0424 15.6099 15.6615 14.6833C16.2806 13.7568 16.611 12.6676 16.611 11.5533C16.6122 10.8131 16.4673 10.0799 16.1846 9.39583C15.9018 8.71174 15.4869 8.09018 14.9635 7.56678C14.4401 7.04338 13.8185 6.62843 13.1344 6.34571C12.4504 6.063 11.7172 5.91808 10.977 5.91927V5.91927ZM10.977 15.2193C10.2525 15.2193 9.54432 15.0044 8.94195 14.6019C8.33957 14.1994 7.87007 13.6274 7.59283 12.958C7.31559 12.2887 7.24305 11.5522 7.38438 10.8416C7.52572 10.1311 7.87459 9.47841 8.38687 8.96613C8.89915 8.45385 9.55183 8.10499 10.2624 7.96365C10.9729 7.82231 11.7094 7.89485 12.3788 8.17209C13.0481 8.44934 13.6202 8.91883 14.0227 9.52121C14.4252 10.1236 14.64 10.8318 14.64 11.5563C14.6374 12.5266 14.2505 13.4563 13.564 14.1421C12.8775 14.8278 11.9473 15.2137 10.977 15.2153V15.2193ZM18.155 5.68827C18.155 5.94815 18.0779 6.2022 17.9335 6.41828C17.7892 6.63437 17.5839 6.80279 17.3438 6.90224C17.1037 7.0017 16.8395 7.02772 16.5847 6.97702C16.3298 6.92632 16.0956 6.80117 15.9119 6.6174C15.7281 6.43364 15.6029 6.19951 15.5522 5.94461C15.5015 5.68972 15.5276 5.42552 15.627 5.18542C15.7265 4.94532 15.8949 4.7401 16.111 4.59571C16.3271 4.45133 16.5811 4.37427 16.841 4.37427C17.0137 4.37387 17.1847 4.40759 17.3443 4.47348C17.5039 4.53938 17.6489 4.63615 17.771 4.75825C17.8931 4.88034 17.9899 5.02535 18.0558 5.18495C18.1217 5.34455 18.1554 5.5156 18.155 5.68827ZM21.891 7.02227C21.9264 5.31532 21.2888 3.66298 20.116 2.42227C18.8726 1.25367 17.2221 0.616778 15.516 0.647266C13.702 0.547266 8.264 0.547266 6.45 0.647266C4.74444 0.614364 3.0936 1.24958 1.85 2.41727C0.679389 3.65938 0.0421636 5.31078 0.075 7.01727C-0.025 8.83127 -0.025 14.2693 0.075 16.0833C0.0395807 17.7902 0.67717 19.4426 1.85 20.6833C3.09384 21.8511 4.74408 22.4879 6.45 22.4583C8.264 22.5583 13.702 22.5583 15.516 22.4583C17.2229 22.4937 18.8753 21.8561 20.116 20.6833C21.2846 19.4399 21.9215 17.7893 21.891 16.0833C21.991 14.2693 21.991 8.83627 21.891 7.02227V7.02227ZM19.543 18.0283C19.3565 18.501 19.0749 18.9304 18.7155 19.2898C18.3562 19.6492 17.9268 19.9308 17.454 20.1173C16.008 20.6913 12.575 20.5583 10.977 20.5583C9.379 20.5583 5.941 20.6853 4.5 20.1173C4.02741 19.9307 3.59821 19.649 3.23903 19.2896C2.87984 18.9303 2.59835 18.5009 2.412 18.0283C1.838 16.5823 1.971 13.1493 1.971 11.5513C1.971 9.95326 1.844 6.51527 2.412 5.07427C2.59857 4.60196 2.88018 4.17301 3.23935 3.81401C3.59852 3.45501 4.0276 3.17361 4.5 2.98727C5.946 2.41327 9.379 2.54627 10.977 2.54627C12.575 2.54627 16.013 2.41927 17.454 2.98727C17.9268 3.17372 18.3562 3.45538 18.7155 3.81474C19.0749 4.1741 19.3565 4.60349 19.543 5.07627C20.117 6.52227 19.984 9.95527 19.984 11.5533C19.984 13.1513 20.117 16.5883 19.543 18.0283Z" fill="#E5F4F2"/>
</svg>
