<svg width="26" height="21" viewBox="0 0 26 21" fill="none" xmlns="http://www.w3.org/2000/svg">
<path id="Icon awesome-twitter" d="M22.959 5.43856C22.975 5.66156 22.975 5.88456 22.975 6.10756C22.9885 8.03373 22.619 9.94336 21.8881 11.7255C21.1571 13.5077 20.0793 15.1268 18.7173 16.4888C17.3553 17.8509 15.7361 18.9287 13.954 19.6596C12.1718 20.3905 10.2622 20.76 8.33604 20.7466C5.53517 20.7536 2.79189 19.9514 0.436035 18.4366C0.848434 18.4821 1.26314 18.5035 1.67804 18.5006C3.99382 18.5061 6.24389 17.731 8.06504 16.3006C6.99136 16.2811 5.95056 15.9269 5.08803 15.2872C4.22549 14.6475 3.58431 13.7544 3.25404 12.7326C3.57557 12.7836 3.90049 12.8103 4.22604 12.8126C4.68293 12.8113 5.13784 12.7525 5.58004 12.6376C4.415 12.402 3.36745 11.7703 2.61532 10.8499C1.86318 9.92955 1.45286 8.77718 1.45404 7.58856V7.52456C2.16709 7.92245 2.96408 8.14619 3.78004 8.17756C2.68853 7.44909 1.91607 6.33163 1.62023 5.05314C1.32439 3.77465 1.52747 2.43145 2.18804 1.29756C3.48088 2.88733 5.09337 4.18769 6.92099 5.11433C8.7486 6.04097 10.7505 6.57321 12.797 6.67656C12.7146 6.28892 12.672 5.89386 12.67 5.49756C12.672 4.46657 12.9834 3.4599 13.5639 2.60784C14.1443 1.75578 14.9672 1.09757 15.9259 0.718383C16.8847 0.339198 17.9351 0.2565 18.9414 0.480992C19.9477 0.705485 20.8634 1.22683 21.57 1.97756C22.7222 1.75711 23.8273 1.33821 24.836 0.739561C24.4535 1.92868 23.6503 2.9374 22.577 3.57656C23.5977 3.45877 24.5951 3.18912 25.536 2.77656C24.8318 3.80202 23.9595 4.7013 22.956 5.43656L22.959 5.43856Z" fill="#E5F4F2"/>
</svg>
