<svg width="18" height="18" viewBox="0 0 18 18" fill="none" xmlns="http://www.w3.org/2000/svg">
<g id="carbon:location-filled">
<path id="Vector" d="M8.8806 1.11304C7.27009 1.11495 5.72609 1.75941 4.58729 2.90505C3.44849 4.05069 2.80788 5.60397 2.80598 7.22415C2.80405 8.54816 3.23395 9.83625 4.02974 10.8908C4.02974 10.8908 4.19541 11.1103 4.22247 11.1419L8.8806 16.6686L13.5409 11.1391C13.5652 11.1097 13.7315 10.8908 13.7315 10.8908L13.732 10.8891C14.5274 9.83504 14.9571 8.54755 14.9552 7.22415C14.9533 5.60397 14.3127 4.05069 13.1739 2.90505C12.0351 1.75941 10.4911 1.11495 8.8806 1.11304ZM8.8806 9.44637C8.44371 9.44637 8.01663 9.31604 7.65337 9.07186C7.29011 8.82768 7.00698 8.48061 6.83979 8.07455C6.6726 7.6685 6.62886 7.22168 6.71409 6.79061C6.79932 6.35954 7.00971 5.96358 7.31864 5.6528C7.62756 5.34202 8.02116 5.13037 8.44966 5.04462C8.87815 4.95888 9.3223 5.00289 9.72593 5.17108C10.1296 5.33928 10.4746 5.6241 10.7173 5.98955C10.96 6.35499 11.0896 6.78463 11.0896 7.22415C11.0888 7.81329 10.8559 8.3781 10.4418 8.79468C10.0277 9.21127 9.46623 9.44563 8.8806 9.44637Z" fill="white"/>
</g>
</svg>
