<svg width="41" height="41" viewBox="0 0 41 41" fill="none" xmlns="http://www.w3.org/2000/svg">
<g id="Frame" opacity="0.5">
<path id="Vector" d="M31.408 18.5622C31.408 21.1632 30.6345 23.7059 29.1853 25.8686C27.7361 28.0314 25.6762 29.7171 23.2662 30.7126C20.8562 31.7081 18.2043 31.9686 15.6458 31.4614C13.0873 30.9541 10.7371 29.7018 8.89232 27.8627C7.04759 26.0236 5.79119 23.6805 5.28198 21.1294C4.77278 18.5784 5.03364 15.9341 6.03158 13.5309C7.02952 11.1277 8.71972 9.07351 10.8885 7.62809C13.0572 6.18267 15.6071 5.41094 18.2157 5.41046C19.948 5.41015 21.6635 5.75009 23.264 6.41089C24.8645 7.07168 26.3189 8.04038 27.5439 9.26166C28.769 10.4829 29.7407 11.9329 30.4037 13.5287C31.0668 15.1245 31.408 16.8349 31.408 18.5622V18.5622Z" stroke="white" stroke-width="1.2" stroke-linecap="round" stroke-linejoin="round"/>
<path id="Vector_2" d="M27.5459 27.8636L35.1778 35.4735" stroke="white" stroke-width="1.2" stroke-linecap="round" stroke-linejoin="round"/>
</g>
</svg>
