<svg width="46" height="32" viewBox="0 0 46 32" fill="none" xmlns="http://www.w3.org/2000/svg">
<g id="pccdss.svg" clip-path="url(#clip0_22_1049)">
<path id="Vector" d="M42.5658 0.437256H3.17584C1.42187 0.437256 0 1.85913 0 3.6131V28.2614C0 30.0154 1.42187 31.4373 3.17584 31.4373H42.5658C44.3197 31.4373 45.7416 30.0154 45.7416 28.2614V3.6131C45.7416 1.85913 44.3197 0.437256 42.5658 0.437256Z" fill="#ED8B22"/>
<path id="Vector_2" d="M1.04297 3.613C1.04297 2.43496 1.99796 1.47998 3.176 1.47998H42.5659C43.7439 1.47998 44.6989 2.43496 44.6989 3.613V21.009H1.04297V3.613Z" fill="#333445"/>
<path id="Vector_3" d="M2.98346 27.1849L3.64642 25.0812H3.8918L4.59781 27.1849H4.33664L4.13575 26.5477H3.41539L3.22597 27.1849H2.98346ZM3.4814 26.321H4.06543L3.88606 25.7384C3.83057 25.5595 3.78992 25.4141 3.76409 25.3022C3.74208 25.4371 3.71099 25.571 3.67081 25.704L3.4814 26.321ZM4.87889 26.509L5.09414 26.486C5.10562 26.6018 5.13145 26.6922 5.17163 26.7573C5.21277 26.8214 5.27112 26.873 5.3467 26.9122C5.42227 26.9515 5.50741 26.9711 5.60212 26.9711C5.73797 26.9711 5.8432 26.9381 5.91782 26.8721C5.99339 26.8051 6.03118 26.7185 6.03118 26.6123C6.03118 26.5501 6.01731 26.4961 5.98957 26.4502C5.96278 26.4033 5.92165 26.365 5.86616 26.3354C5.81163 26.3057 5.69301 26.2641 5.51028 26.2105C5.34765 26.1627 5.2319 26.1144 5.16302 26.0656C5.09414 26.0168 5.04057 25.9551 5.0023 25.8805C4.96404 25.8049 4.9449 25.7198 4.9449 25.6251C4.9449 25.4548 4.99991 25.3156 5.10993 25.2075C5.21994 25.0994 5.36822 25.0453 5.55477 25.0453C5.68296 25.0453 5.79489 25.0707 5.89055 25.1214C5.98718 25.1721 6.0618 25.2448 6.11441 25.3395C6.16798 25.4342 6.19668 25.5457 6.20051 25.6738L5.98096 25.6939C5.96948 25.5571 5.92834 25.4557 5.85755 25.3897C5.78771 25.3237 5.68918 25.2907 5.56194 25.2907C5.4328 25.2907 5.33426 25.3199 5.26634 25.3782C5.19842 25.4356 5.16445 25.5103 5.16445 25.6021C5.16445 25.6872 5.18933 25.7532 5.23907 25.8001C5.28882 25.847 5.40075 25.8944 5.57486 25.9422C5.74514 25.9891 5.86472 26.0297 5.9336 26.0642C6.03884 26.1177 6.11824 26.1885 6.17181 26.2765C6.22538 26.3636 6.25217 26.4679 6.25217 26.5894C6.25217 26.7099 6.22395 26.8199 6.16751 26.9194C6.11106 27.0179 6.03405 27.093 5.93647 27.1447C5.83985 27.1964 5.72314 27.2222 5.58634 27.2222C5.37301 27.2222 5.20272 27.1581 5.07549 27.0299C4.94921 26.9017 4.88368 26.7281 4.87889 26.509ZM6.6624 26.509L6.87765 26.486C6.88913 26.6018 6.91496 26.6922 6.95514 26.7573C6.99627 26.8214 7.05463 26.873 7.1302 26.9122C7.20578 26.9515 7.29092 26.9711 7.38563 26.9711C7.52148 26.9711 7.62671 26.9381 7.70133 26.8721C7.7769 26.8051 7.81469 26.7185 7.81469 26.6123C7.81469 26.5501 7.80082 26.4961 7.77308 26.4502C7.74629 26.4033 7.70515 26.365 7.64967 26.3354C7.59514 26.3057 7.47651 26.2641 7.29379 26.2105C7.13116 26.1627 7.01541 26.1144 6.94653 26.0656C6.87765 26.0168 6.82408 25.9551 6.78581 25.8805C6.74754 25.8049 6.72841 25.7198 6.72841 25.6251C6.72841 25.4548 6.78342 25.3156 6.89343 25.2075C7.00345 25.0994 7.15173 25.0453 7.33828 25.0453C7.46647 25.0453 7.5784 25.0707 7.67406 25.1214C7.77068 25.1721 7.8453 25.2448 7.89792 25.3395C7.95149 25.4342 7.98019 25.5457 7.98402 25.6738L7.76447 25.6939C7.75299 25.5571 7.71185 25.4557 7.64106 25.3897C7.57122 25.3237 7.47269 25.2907 7.34545 25.2907C7.2163 25.2907 7.11777 25.3199 7.04985 25.3782C6.98192 25.4356 6.94796 25.5103 6.94796 25.6021C6.94796 25.6872 6.97284 25.7532 7.02258 25.8001C7.07233 25.847 7.18426 25.8944 7.35837 25.9422C7.52865 25.9891 7.64823 26.0297 7.71711 26.0642C7.82234 26.1177 7.90175 26.1885 7.95532 26.2765C8.00889 26.3636 8.03568 26.4679 8.03568 26.5894C8.03568 26.7099 8.00746 26.8199 7.95101 26.9194C7.89457 27.0179 7.81756 27.093 7.71998 27.1447C7.62336 27.1964 7.50665 27.2222 7.36985 27.2222C7.15651 27.2222 6.98623 27.1581 6.85899 27.0299C6.73272 26.9017 6.66718 26.7281 6.6624 26.509ZM8.5277 27.1849V25.0812H9.7747V25.3295H8.75586V25.9738H9.71013V26.2206H8.75586V26.9366H9.81488V27.1849H8.5277ZM10.2294 26.509L10.4447 26.486C10.4561 26.6018 10.482 26.6922 10.5222 26.7573C10.5633 26.8214 10.6216 26.873 10.6972 26.9122C10.7728 26.9515 10.8579 26.9711 10.9526 26.9711C11.0885 26.9711 11.1937 26.9381 11.2683 26.8721C11.3439 26.8051 11.3817 26.7185 11.3817 26.6123C11.3817 26.5501 11.3678 26.4961 11.3401 26.4502C11.3133 26.4033 11.2722 26.365 11.2167 26.3354C11.1622 26.3057 11.0435 26.2641 10.8608 26.2105C10.6982 26.1627 10.5824 26.1144 10.5135 26.0656C10.4447 26.0168 10.3911 25.9551 10.3528 25.8805C10.3146 25.8049 10.2954 25.7198 10.2954 25.6251C10.2954 25.4548 10.3504 25.3156 10.4604 25.2075C10.5705 25.0994 10.7187 25.0453 10.9053 25.0453C11.0335 25.0453 11.1454 25.0707 11.2411 25.1214C11.3377 25.1721 11.4123 25.2448 11.4649 25.3395C11.5185 25.4342 11.5472 25.5457 11.551 25.6738L11.3315 25.6939C11.32 25.5571 11.2789 25.4557 11.2081 25.3897C11.1382 25.3237 11.0397 25.2907 10.9125 25.2907C10.7833 25.2907 10.6848 25.3199 10.6169 25.3782C10.5489 25.4356 10.515 25.5103 10.515 25.6021C10.515 25.6872 10.5398 25.7532 10.5896 25.8001C10.6393 25.847 10.7513 25.8944 10.9254 25.9422C11.0957 25.9891 11.2152 26.0297 11.2841 26.0642C11.3894 26.1177 11.4688 26.1885 11.5223 26.2765C11.5759 26.3636 11.6027 26.4679 11.6027 26.5894C11.6027 26.7099 11.5745 26.8199 11.518 26.9194C11.4616 27.0179 11.3846 27.093 11.287 27.1447C11.1904 27.1964 11.0737 27.2222 10.9369 27.2222C10.7235 27.2222 10.5532 27.1581 10.426 27.0299C10.2997 26.9017 10.2342 26.7281 10.2294 26.509ZM12.0129 26.509L12.2282 26.486C12.2397 26.6018 12.2655 26.6922 12.3057 26.7573C12.3468 26.8214 12.4052 26.873 12.4807 26.9122C12.5563 26.9515 12.6414 26.9711 12.7362 26.9711C12.872 26.9711 12.9772 26.9381 13.0518 26.8721C13.1274 26.8051 13.1652 26.7185 13.1652 26.6123C13.1652 26.5501 13.1513 26.4961 13.1236 26.4502C13.0968 26.4033 13.0557 26.365 13.0002 26.3354C12.9457 26.3057 12.827 26.2641 12.6443 26.2105C12.4817 26.1627 12.3659 26.1144 12.297 26.0656C12.2282 26.0168 12.1746 25.9551 12.1363 25.8805C12.0981 25.8049 12.0789 25.7198 12.0789 25.6251C12.0789 25.4548 12.1339 25.3156 12.244 25.2075C12.354 25.0994 12.5023 25.0453 12.6888 25.0453C12.817 25.0453 12.9289 25.0707 13.0246 25.1214C13.1212 25.1721 13.1958 25.2448 13.2484 25.3395C13.302 25.4342 13.3307 25.5457 13.3345 25.6738L13.115 25.6939C13.1035 25.5571 13.0624 25.4557 12.9916 25.3897C12.9217 25.3237 12.8232 25.2907 12.696 25.2907C12.5668 25.2907 12.4683 25.3199 12.4004 25.3782C12.3324 25.4356 12.2985 25.5103 12.2985 25.6021C12.2985 25.6872 12.3234 25.7532 12.3731 25.8001C12.4228 25.847 12.5348 25.8944 12.7089 25.9422C12.8792 25.9891 12.9988 26.0297 13.0676 26.0642C13.1729 26.1177 13.2523 26.1885 13.3058 26.2765C13.3594 26.3636 13.3862 26.4679 13.3862 26.5894C13.3862 26.7099 13.358 26.8199 13.3015 26.9194C13.2451 27.0179 13.1681 27.093 13.0705 27.1447C12.9739 27.1964 12.8572 27.2222 12.7204 27.2222C12.507 27.2222 12.3368 27.1581 12.2095 27.0299C12.0832 26.9017 12.0177 26.7281 12.0129 26.509ZM13.8782 27.1849V25.0812H15.1252V25.3295H14.1064V25.9738H15.0606V26.2206H14.1064V26.9366H15.1654V27.1849H13.8782ZM15.6517 27.1849V25.0812H16.2472C16.3945 25.0812 16.5065 25.0941 16.583 25.1199C16.6834 25.1534 16.7705 25.2147 16.8442 25.3036C16.9178 25.3926 16.9752 25.505 17.0164 25.6408C17.0575 25.7757 17.0781 25.936 17.0781 26.1216C17.0781 26.3598 17.0431 26.5621 16.9733 26.7286C16.9035 26.8941 16.8135 27.0117 16.7035 27.0816C16.5945 27.1504 16.4514 27.1849 16.2745 27.1849H15.6517ZM15.8798 26.9366H16.2472C16.3955 26.9366 16.5079 26.9127 16.5844 26.8649C16.661 26.8161 16.7198 26.7381 16.7609 26.631C16.8155 26.4884 16.8427 26.3177 16.8427 26.1187C16.8427 25.9054 16.8135 25.7379 16.7552 25.6164C16.6978 25.494 16.6236 25.4122 16.5328 25.3711C16.4715 25.3433 16.3744 25.3295 16.2415 25.3295H15.8798V26.9366ZM18.4122 27.1849V25.0812H19.0594C19.1905 25.0812 19.2943 25.1018 19.3708 25.1429C19.4473 25.1831 19.51 25.2462 19.5588 25.3323C19.6076 25.4184 19.632 25.5136 19.632 25.6179C19.632 25.7145 19.6109 25.8016 19.5688 25.879C19.5267 25.9565 19.4674 26.0187 19.3909 26.0656C19.4913 26.1019 19.5703 26.1641 19.6277 26.2521C19.686 26.3392 19.7152 26.4468 19.7152 26.575C19.7152 26.7022 19.6889 26.8142 19.6363 26.9108C19.5846 27.0065 19.5153 27.0763 19.4282 27.1203C19.3412 27.1634 19.2216 27.1849 19.0695 27.1849H18.4122ZM18.6404 25.9651H19.0135C19.1111 25.9651 19.1804 25.9585 19.2216 25.9451C19.2809 25.925 19.3263 25.8915 19.3579 25.8446C19.3904 25.7968 19.4067 25.7322 19.4067 25.6509C19.4067 25.5753 19.3919 25.5127 19.3622 25.4629C19.3335 25.4122 19.2948 25.3773 19.246 25.3582C19.1981 25.339 19.1116 25.3295 18.9862 25.3295H18.6404V25.9651ZM18.6404 26.9366H19.0695C19.1642 26.9366 19.234 26.928 19.279 26.9108C19.344 26.8859 19.3933 26.8453 19.4268 26.7888C19.4612 26.7314 19.4784 26.6597 19.4784 26.5736C19.4784 26.4942 19.4622 26.4272 19.4296 26.3727C19.3971 26.3172 19.3531 26.277 19.2976 26.2521C19.2431 26.2263 19.157 26.2134 19.0393 26.2134H18.6404V26.9366ZM20.6894 27.1849V26.2938L20.025 25.0812H20.3034L20.642 25.7155C20.709 25.8408 20.7678 25.9594 20.8185 26.0713C20.8692 25.9613 20.9319 25.8374 21.0065 25.6997L21.3409 25.0812H21.6063L20.9175 26.2938V27.1849H20.6894ZM24.0168 26.4473L24.2464 26.5176C24.1956 26.7539 24.1067 26.9304 23.9794 27.0471C23.8532 27.1629 23.6991 27.2208 23.5174 27.2208C23.3576 27.2208 23.2208 27.182 23.107 27.1045C22.9941 27.0261 22.9013 26.9008 22.8286 26.7286C22.7568 26.5564 22.721 26.3531 22.721 26.1187C22.721 25.8872 22.7568 25.6915 22.8286 25.5318C22.9013 25.3711 22.9994 25.25 23.1228 25.1687C23.2462 25.0865 23.3839 25.0453 23.536 25.0453C23.7025 25.0453 23.8455 25.0975 23.9651 25.2017C24.0847 25.3051 24.1684 25.4572 24.2162 25.6581L23.9924 25.7226C23.9158 25.4299 23.7623 25.2835 23.5317 25.2835C23.4169 25.2835 23.3174 25.3132 23.2333 25.3725C23.1491 25.4309 23.0816 25.5222 23.0309 25.6466C22.9812 25.7709 22.9563 25.9283 22.9563 26.1187C22.9563 26.4066 23.007 26.6228 23.1084 26.7673C23.2098 26.9108 23.3447 26.9825 23.5131 26.9825C23.6374 26.9825 23.7446 26.9385 23.8345 26.8505C23.9254 26.7616 23.9861 26.6272 24.0168 26.4473ZM24.6437 26.1603C24.6437 25.8016 24.7226 25.526 24.8804 25.3338C25.0383 25.1405 25.2349 25.0439 25.4702 25.0439C25.6223 25.0439 25.761 25.0869 25.8864 25.173C26.0117 25.2591 26.1107 25.3845 26.1834 25.549C26.2571 25.7126 26.2939 25.9077 26.2939 26.1345C26.2939 26.4463 26.2231 26.7003 26.0815 26.8964C25.9256 27.1127 25.7213 27.2208 25.4688 27.2208C25.2143 27.2208 25.0096 27.1098 24.8546 26.8878C24.714 26.6869 24.6437 26.4444 24.6437 26.1603ZM24.879 26.1646C24.879 26.4239 24.9359 26.6252 25.0498 26.7687C25.1646 26.9113 25.3038 26.9825 25.4673 26.9825C25.6348 26.9825 25.7749 26.9103 25.8878 26.7659C26.0016 26.6214 26.0586 26.409 26.0586 26.1287C26.0586 25.9479 26.0294 25.7863 25.971 25.6437C25.9261 25.5347 25.8581 25.4476 25.7673 25.3825C25.6773 25.3165 25.5788 25.2835 25.4717 25.2835C25.2995 25.2835 25.1574 25.3553 25.0455 25.4988C24.9345 25.6423 24.879 25.8642 24.879 26.1646ZM26.7544 27.1849V25.0812H26.9883L27.8952 26.7329V25.0812H28.1133V27.1849H27.8794L26.9739 25.5318V27.1849H26.7544ZM29.119 27.1849V25.3295H28.5508V25.0812H29.9183V25.3295H29.3472V27.1849H29.119ZM30.3242 27.1849V25.0812H31.0891C31.2488 25.0812 31.3665 25.1008 31.4421 25.14C31.5186 25.1793 31.5813 25.2448 31.6301 25.3366C31.6789 25.4275 31.7033 25.5332 31.7033 25.6538C31.7033 25.8126 31.6616 25.9412 31.5784 26.0398C31.4961 26.1383 31.3761 26.201 31.2182 26.2277C31.2823 26.266 31.3311 26.3048 31.3646 26.344C31.4325 26.4243 31.4923 26.5138 31.544 26.6123L31.8453 27.1849H31.5583L31.3287 26.7472C31.2398 26.576 31.1723 26.4607 31.1264 26.4014C31.0814 26.3421 31.0374 26.3024 30.9944 26.2823C30.9523 26.2612 30.893 26.2507 30.8164 26.2507H30.5524V27.1849H30.3242ZM30.5524 26.0096H31.0432C31.1503 26.0096 31.2316 25.9967 31.2871 25.9709C31.3426 25.9451 31.3866 25.9044 31.4191 25.8489C31.4517 25.7934 31.4679 25.7289 31.4679 25.6552C31.4679 25.549 31.4368 25.4658 31.3746 25.4055C31.3125 25.3443 31.2201 25.3137 31.0977 25.3137H30.5524V26.0096ZM32.1766 26.1603C32.1766 25.8016 32.2555 25.526 32.4134 25.3338C32.5712 25.1405 32.7678 25.0439 33.0032 25.0439C33.1553 25.0439 33.294 25.0869 33.4193 25.173C33.5446 25.2591 33.6436 25.3845 33.7164 25.549C33.79 25.7126 33.8268 25.9077 33.8268 26.1345C33.8268 26.4463 33.7561 26.7003 33.6145 26.8964C33.4585 27.1127 33.2543 27.2208 33.0017 27.2208C32.7473 27.2208 32.5425 27.1098 32.3876 26.8878C32.2469 26.6869 32.1766 26.4444 32.1766 26.1603ZM32.412 26.1646C32.412 26.4239 32.4689 26.6252 32.5827 26.7687C32.6975 26.9113 32.8367 26.9825 33.0003 26.9825C33.1677 26.9825 33.3079 26.9103 33.4207 26.7659C33.5346 26.6214 33.5915 26.409 33.5915 26.1287C33.5915 25.9479 33.5623 25.7863 33.504 25.6437C33.459 25.5347 33.3911 25.4476 33.3002 25.3825C33.2103 25.3165 33.1118 25.2835 33.0046 25.2835C32.8324 25.2835 32.6903 25.3553 32.5784 25.4988C32.4674 25.6423 32.412 25.8642 32.412 26.1646ZM34.2801 27.1849V25.0812H34.5083V26.9366H35.3578V27.1849H34.2801ZM37.0351 26.4473L37.2647 26.5176C37.214 26.7539 37.125 26.9304 36.9978 27.0471C36.8715 27.1629 36.7175 27.2208 36.5357 27.2208C36.376 27.2208 36.2392 27.182 36.1253 27.1045C36.0125 27.0261 35.9197 26.9008 35.847 26.7286C35.7752 26.5564 35.7393 26.3531 35.7393 26.1187C35.7393 25.8872 35.7752 25.6915 35.847 25.5318C35.9197 25.3711 36.0177 25.25 36.1411 25.1687C36.2645 25.0865 36.4023 25.0453 36.5544 25.0453C36.7209 25.0453 36.8639 25.0975 36.9835 25.2017C37.103 25.3051 37.1867 25.4572 37.2346 25.6581L37.0107 25.7226C36.9342 25.4299 36.7806 25.2835 36.5501 25.2835C36.4353 25.2835 36.3358 25.3132 36.2516 25.3725C36.1674 25.4309 36.1 25.5222 36.0493 25.6466C35.9995 25.7709 35.9747 25.9283 35.9747 26.1187C35.9747 26.4066 36.0254 26.6228 36.1268 26.7673C36.2282 26.9108 36.3631 26.9825 36.5314 26.9825C36.6558 26.9825 36.763 26.9385 36.8529 26.8505C36.9438 26.7616 37.0045 26.6272 37.0351 26.4473ZM37.5372 27.1849L38.2001 25.0812H38.4455L39.1515 27.1849H38.8904L38.6895 26.5477H37.9691L37.7797 27.1849H37.5372ZM38.0351 26.321H38.6192L38.4398 25.7384C38.3843 25.5595 38.3436 25.4141 38.3178 25.3022C38.2958 25.4371 38.2647 25.571 38.2245 25.704L38.0351 26.321ZM39.4326 26.509L39.6479 26.486C39.6594 26.6018 39.6852 26.6922 39.7254 26.7573C39.7665 26.8214 39.8249 26.873 39.9004 26.9122C39.976 26.9515 40.0611 26.9711 40.1559 26.9711C40.2917 26.9711 40.3969 26.9381 40.4716 26.8721C40.5471 26.8051 40.5849 26.7185 40.5849 26.6123C40.5849 26.5501 40.571 26.4961 40.5433 26.4502C40.5165 26.4033 40.4754 26.365 40.4199 26.3354C40.3654 26.3057 40.2467 26.2641 40.064 26.2105C39.9014 26.1627 39.7856 26.1144 39.7168 26.0656C39.6479 26.0168 39.5943 25.9551 39.556 25.8805C39.5178 25.8049 39.4986 25.7198 39.4986 25.6251C39.4986 25.4548 39.5536 25.3156 39.6637 25.2075C39.7737 25.0994 39.922 25.0453 40.1085 25.0453C40.2367 25.0453 40.3486 25.0707 40.4443 25.1214C40.5409 25.1721 40.6155 25.2448 40.6681 25.3395C40.7217 25.4342 40.7504 25.5457 40.7542 25.6738L40.5347 25.6939C40.5232 25.5571 40.4821 25.4557 40.4113 25.3897C40.3414 25.3237 40.2429 25.2907 40.1157 25.2907C39.9865 25.2907 39.888 25.3199 39.8201 25.3782C39.7521 25.4356 39.7182 25.5103 39.7182 25.6021C39.7182 25.6872 39.7431 25.7532 39.7928 25.8001C39.8426 25.847 39.9545 25.8944 40.1286 25.9422C40.2989 25.9891 40.4185 26.0297 40.4873 26.0642C40.5926 26.1177 40.672 26.1885 40.7255 26.2765C40.7791 26.3636 40.8059 26.4679 40.8059 26.5894C40.8059 26.7099 40.7777 26.8199 40.7212 26.9194C40.6648 27.0179 40.5878 27.093 40.4902 27.1447C40.3936 27.1964 40.2769 27.2222 40.1401 27.2222C39.9267 27.2222 39.7565 27.1581 39.6292 27.0299C39.5029 26.9017 39.4374 26.7281 39.4326 26.509ZM41.2979 27.1849V25.0812H42.5449V25.3295H41.5261V25.9738H42.4804V26.2206H41.5261V26.9366H42.5851V27.1849H41.2979Z" fill="white"/>
<path id="Vector_4" d="M14.9997 9.43722V6.04419H15.9023C16.2387 6.04419 16.4585 6.06039 16.5619 6.09279C16.727 6.14525 16.8628 6.25712 16.9693 6.42839C17.0773 6.59966 17.1313 6.82031 17.1313 7.09033C17.1313 7.33567 17.085 7.54166 16.9924 7.7083C16.8998 7.8734 16.7841 7.9899 16.6452 8.05779C16.5064 8.12414 16.2672 8.15731 15.9278 8.15731H15.5598V9.43722H14.9997ZM15.5598 6.61818V7.581H15.8699C16.0782 7.581 16.2194 7.56635 16.2934 7.53703C16.3691 7.50771 16.4308 7.45525 16.4786 7.37964C16.5264 7.3025 16.5504 7.20837 16.5504 7.09728C16.5504 6.98464 16.5257 6.88975 16.4763 6.8126C16.4269 6.73545 16.366 6.68376 16.2934 6.65753C16.2209 6.6313 16.0674 6.61818 15.8329 6.61818H15.5598ZM19.6584 8.18971L20.2023 8.40033C20.1175 8.77991 19.9763 9.05764 19.7788 9.23355C19.5813 9.4079 19.3383 9.49508 19.0497 9.49508C18.6871 9.49508 18.3932 9.35544 18.1679 9.07616C17.9087 8.75368 17.7791 8.31855 17.7791 7.77079C17.7791 7.19217 17.9095 6.7393 18.1702 6.41219C18.397 6.12828 18.7018 5.98633 19.0844 5.98633C19.3961 5.98633 19.6569 6.09279 19.8667 6.30572C20.0164 6.45694 20.126 6.68144 20.1954 6.97924L19.6399 7.14125C19.6044 6.95764 19.5334 6.81723 19.427 6.72002C19.3221 6.62127 19.1978 6.57189 19.0543 6.57189C18.8491 6.57189 18.6817 6.66138 18.5521 6.84037C18.4225 7.01936 18.3577 7.31484 18.3577 7.72682C18.3577 8.15422 18.421 8.45819 18.5475 8.63872C18.674 8.81925 18.8383 8.90952 19.0405 8.90952C19.1886 8.90952 19.3167 8.85243 19.4247 8.73825C19.5327 8.62252 19.6106 8.43968 19.6584 8.18971ZM20.9496 9.43722V6.04419H21.5097V9.43722H20.9496ZM23.6987 6.04419H24.724C24.9832 6.04419 25.1784 6.0735 25.3096 6.13214C25.4423 6.18923 25.5642 6.28644 25.6753 6.42376C25.7863 6.56109 25.8735 6.7393 25.9368 6.95841C26.0001 7.17751 26.0317 7.44985 26.0317 7.77542C26.0317 8.06859 25.9985 8.32395 25.9322 8.54152C25.8658 8.75753 25.7817 8.92881 25.6799 9.05533C25.578 9.18186 25.4546 9.27752 25.3096 9.34233C25.1661 9.40559 24.9809 9.43722 24.7541 9.43722H23.6987V6.04419ZM24.2588 6.61818V8.86554H24.68C24.8606 8.86554 24.9909 8.84857 25.0712 8.81462C25.1529 8.78068 25.2193 8.72976 25.2702 8.66187C25.3227 8.59243 25.3659 8.48365 25.3998 8.33553C25.4338 8.1874 25.4507 7.99221 25.4507 7.74996C25.4507 7.49845 25.433 7.30018 25.3975 7.15514C25.3636 7.0101 25.3096 6.89592 25.2355 6.8126C25.163 6.72927 25.0743 6.6745 24.9693 6.64827C24.8906 6.62821 24.7387 6.61818 24.5134 6.61818H24.2588ZM26.6494 8.33321L27.1979 8.26841C27.2596 8.70199 27.4618 8.91878 27.8043 8.91878C27.974 8.91878 28.1075 8.8748 28.2047 8.78685C28.3019 8.69736 28.3505 8.58703 28.3505 8.45588C28.3505 8.37873 28.3335 8.31315 28.2996 8.25915C28.2657 8.20514 28.214 8.16117 28.1445 8.12722C28.0751 8.09173 27.9069 8.0331 27.64 7.95132C27.4008 7.8788 27.2257 7.80011 27.1146 7.71524C27.0035 7.63038 26.9148 7.51929 26.8484 7.38196C26.7836 7.24309 26.7512 7.09419 26.7512 6.93526C26.7512 6.75011 26.7929 6.58346 26.8762 6.43534C26.9611 6.28721 27.0776 6.17534 27.2257 6.09974C27.3738 6.02413 27.5566 5.98633 27.7742 5.98633C28.1013 5.98633 28.3567 6.07505 28.5403 6.25249C28.7239 6.42994 28.8211 6.68376 28.8319 7.01396L28.2695 7.04404C28.2448 6.86197 28.1916 6.73468 28.1098 6.66215C28.028 6.58963 27.9115 6.55337 27.7603 6.55337C27.6091 6.55337 27.4926 6.58501 27.4108 6.64827C27.3291 6.71153 27.2882 6.79022 27.2882 6.88435C27.2882 6.97692 27.3252 7.05485 27.3993 7.11811C27.4733 7.18137 27.6438 7.25081 27.9108 7.32641C28.1931 7.40819 28.3968 7.4946 28.5218 7.58563C28.6483 7.67513 28.7447 7.79162 28.8111 7.93512C28.8774 8.07708 28.9106 8.24989 28.9106 8.45356C28.9106 8.74828 28.8196 8.99593 28.6375 9.19651C28.457 9.3971 28.1738 9.4974 27.7881 9.4974C27.1061 9.4974 26.7265 9.10933 26.6494 8.33321ZM29.526 8.33321L30.0745 8.26841C30.1362 8.70199 30.3384 8.91878 30.6809 8.91878C30.8507 8.91878 30.9841 8.8748 31.0813 8.78685C31.1785 8.69736 31.2271 8.58703 31.2271 8.45588C31.2271 8.37873 31.2102 8.31315 31.1762 8.25915C31.1423 8.20514 31.0906 8.16117 31.0212 8.12722C30.9517 8.09173 30.7835 8.0331 30.5166 7.95132C30.2774 7.8788 30.1023 7.80011 29.9912 7.71524C29.8801 7.63038 29.7914 7.51929 29.725 7.38196C29.6602 7.24309 29.6278 7.09419 29.6278 6.93526C29.6278 6.75011 29.6695 6.58346 29.7528 6.43534C29.8377 6.28721 29.9542 6.17534 30.1023 6.09974C30.2504 6.02413 30.4333 5.98633 30.6508 5.98633C30.9779 5.98633 31.2333 6.07505 31.4169 6.25249C31.6005 6.42994 31.6978 6.68376 31.7086 7.01396L31.1461 7.04404C31.1214 6.86197 31.0682 6.73468 30.9864 6.66215C30.9047 6.58963 30.7882 6.55337 30.6369 6.55337C30.4857 6.55337 30.3692 6.58501 30.2875 6.64827C30.2057 6.71153 30.1648 6.79022 30.1648 6.88435C30.1648 6.97692 30.2018 7.05485 30.2759 7.11811C30.35 7.18137 30.5205 7.25081 30.7874 7.32641C31.0698 7.40819 31.2734 7.4946 31.3984 7.58563C31.5249 7.67513 31.6214 7.79162 31.6877 7.93512C31.7541 8.07708 31.7872 8.24989 31.7872 8.45356C31.7872 8.74828 31.6962 8.99593 31.5141 9.19651C31.3336 9.3971 31.0505 9.4974 30.6647 9.4974C29.9827 9.4974 29.6031 9.10933 29.526 8.33321Z" fill="white"/>
<path id="Vector_5" d="M17.0645 14.1897L17.6084 14.4003C17.5236 14.7799 17.3824 15.0576 17.1849 15.2335C16.9874 15.4079 16.7443 15.4951 16.4558 15.4951C16.0932 15.4951 15.7993 15.3554 15.574 15.0761C15.3148 14.7537 15.1852 14.3185 15.1852 13.7708C15.1852 13.1922 15.3155 12.7393 15.5763 12.4122C15.8031 12.1283 16.1079 11.9863 16.4905 11.9863C16.8022 11.9863 17.063 12.0928 17.2728 12.3057C17.4225 12.4569 17.532 12.6814 17.6015 12.9792L17.046 13.1412C17.0105 12.9576 16.9395 12.8172 16.8331 12.72C16.7281 12.6212 16.6039 12.5719 16.4604 12.5719C16.2552 12.5719 16.0878 12.6614 15.9582 12.8404C15.8286 13.0193 15.7638 13.3148 15.7638 13.7268C15.7638 14.1542 15.827 14.4582 15.9536 14.6387C16.0801 14.8192 16.2444 14.9095 16.4466 14.9095C16.5947 14.9095 16.7227 14.8524 16.8308 14.7382C16.9388 14.6225 17.0167 14.4397 17.0645 14.1897ZM18.2608 13.7615C18.2608 13.3573 18.3202 13.0247 18.439 12.764C18.5594 12.5017 18.716 12.3065 18.9089 12.1784C19.1018 12.0503 19.3355 11.9863 19.6102 11.9863C20.0083 11.9863 20.3323 12.1383 20.5823 12.4423C20.8338 12.7462 20.9595 13.179 20.9595 13.7407C20.9595 14.3085 20.8268 14.7521 20.5614 15.0715C20.3284 15.3539 20.0121 15.4951 19.6125 15.4951C19.2098 15.4951 18.8919 15.3554 18.6589 15.0761C18.3935 14.7567 18.2608 14.3185 18.2608 13.7615ZM18.8394 13.7384C18.8394 14.1287 18.9135 14.4219 19.0616 14.6179C19.2098 14.8123 19.3934 14.9095 19.6125 14.9095C19.8331 14.9095 20.016 14.8131 20.161 14.6202C20.3061 14.4258 20.3786 14.128 20.3786 13.7268C20.3786 13.3333 20.3076 13.0425 20.1656 12.8542C20.0252 12.666 19.8408 12.5719 19.6125 12.5719C19.3841 12.5719 19.1982 12.6668 19.0547 12.8566C18.9112 13.0463 18.8394 13.3403 18.8394 13.7384ZM21.6767 15.4372V12.0442H22.5169L23.0214 14.3587L23.5214 12.0442H24.3638V15.4372H23.8431V12.7663L23.2899 15.4372H22.7483L22.1998 12.7663V15.4372H21.6767ZM25.2084 15.4372V12.0442H26.111C26.4474 12.0442 26.6672 12.0604 26.7706 12.0928C26.9357 12.1452 27.0715 12.2571 27.178 12.4284C27.286 12.5996 27.34 12.8203 27.34 13.0903C27.34 13.3356 27.2937 13.5416 27.2011 13.7083C27.1085 13.8734 26.9928 13.9899 26.8539 14.0578C26.7151 14.1241 26.4759 14.1573 26.1365 14.1573H25.7685V15.4372H25.2084ZM25.7685 12.6182V13.581H26.0786C26.2869 13.581 26.4281 13.5663 26.5021 13.537C26.5778 13.5077 26.6395 13.4552 26.6873 13.3796C26.7351 13.3025 26.7591 13.2084 26.7591 13.0973C26.7591 12.9846 26.7344 12.8897 26.685 12.8126C26.6356 12.7354 26.5747 12.6837 26.5021 12.6575C26.4296 12.6313 26.2761 12.6182 26.0416 12.6182H25.7685ZM28.1012 15.4372V12.0719H28.6613V14.8655H30.0592V15.4372H28.1012ZM30.7278 15.4372V12.0442H31.2879V15.4372H30.7278ZM34.6205 15.4372H34.0095L33.7665 14.6665H32.6555L32.4264 15.4372H31.8293L32.9124 12.0442H33.5073L34.6205 15.4372ZM33.5859 14.0948L33.2041 12.8357L32.8268 14.0948H33.5859ZM35.2081 15.4372V12.0442H35.7543L36.8931 14.31V12.0442H37.4161V15.4372H36.8514L35.7312 13.2246V15.4372H35.2081ZM38.918 15.4372V12.6182H38.0917V12.0442H40.302V12.6182H39.4781V15.4372H38.918Z" fill="white"/>
<path id="Vector_6" d="M11.5413 6.81201H5.75841C5.39191 6.81201 5.0948 7.10912 5.0948 7.47562V14.5383C5.0948 14.9048 5.39191 15.2019 5.75841 15.2019H11.5413C11.9078 15.2019 12.2049 14.9048 12.2049 14.5383V7.47562C12.2049 7.10912 11.9078 6.81201 11.5413 6.81201Z" stroke="white" stroke-width="0.189602"/>
<mask id="mask0_22_1049" style="mask-type:alpha" maskUnits="userSpaceOnUse" x="5" y="7" width="7" height="8">
<g id="path-7-inside-1">
<path id="Vector_7" d="M11.3991 7.38062H5.85325C5.69618 7.38062 5.56885 7.50795 5.56885 7.66502V14.3485C5.56885 14.5056 5.69618 14.6329 5.85325 14.6329H11.3991C11.5562 14.6329 11.6835 14.5056 11.6835 14.3485V7.66502C11.6835 7.50795 11.5562 7.38062 11.3991 7.38062Z" fill="white"/>
</g>
</mask>
<g mask="url(#mask0_22_1049)">
<path id="Vector_8" d="M11.3991 7.38062H5.85325C5.69618 7.38062 5.56885 7.50795 5.56885 7.66502V14.3485C5.56885 14.5056 5.69618 14.6329 5.85325 14.6329H11.3991C11.5562 14.6329 11.6835 14.5056 11.6835 14.3485V7.66502C11.6835 7.50795 11.5562 7.38062 11.3991 7.38062Z" stroke="#ED8B22" stroke-width="1.04281"/>
<path id="Vector_9" d="M10.5935 6.38525H6.65925C6.63307 6.38525 6.61185 6.40648 6.61185 6.43265V7.94947C6.61185 7.97565 6.63307 7.99687 6.65925 7.99687H10.5935C10.6197 7.99687 10.6409 7.97565 10.6409 7.94947V6.43265C10.6409 6.40648 10.6197 6.38525 10.5935 6.38525Z" fill="#303142" stroke="white" stroke-width="0.0948012"/>
</g>
<mask id="mask1_22_1049" style="mask-type:alpha" maskUnits="userSpaceOnUse" x="7" y="5" width="3" height="2">
<g id="path-9-inside-2">
<path id="Vector_10" d="M9.50329 6.43256C9.50329 6.32052 9.48122 6.20957 9.43834 6.10605C9.39546 6.00254 9.33263 5.90848 9.2534 5.82925C9.17417 5.75002 9.0801 5.68718 8.97659 5.6443C8.87307 5.60142 8.76213 5.57935 8.65009 5.57935C8.53804 5.57935 8.42709 5.60142 8.32358 5.6443C8.22006 5.68718 8.126 5.75002 8.04677 5.82925C7.96755 5.90848 7.9047 6.00254 7.86182 6.10605C7.81894 6.20957 7.79687 6.32052 7.79688 6.43256H8.65009H9.50329Z" fill="white"/>
</g>
</mask>
<g mask="url(#mask1_22_1049)">
<path id="Vector_11" d="M9.50329 6.43256C9.50329 6.32052 9.48122 6.20957 9.43834 6.10605C9.39546 6.00254 9.33263 5.90848 9.2534 5.82925C9.17417 5.75002 9.0801 5.68718 8.97659 5.6443C8.87307 5.60142 8.76213 5.57935 8.65009 5.57935C8.53804 5.57935 8.42709 5.60142 8.32358 5.6443C8.22006 5.68718 8.126 5.75002 8.04677 5.82925C7.96755 5.90848 7.9047 6.00254 7.86182 6.10605C7.81894 6.20957 7.79687 6.32052 7.79688 6.43256H8.65009H9.50329Z" fill="#303142" stroke="white" stroke-width="0.189602"/>
<path id="Vector_12" d="M8.65001 7.2385C9.06887 7.2385 9.40842 6.89895 9.40842 6.48009C9.40842 6.06123 9.06887 5.72168 8.65001 5.72168C8.23115 5.72168 7.8916 6.06123 7.8916 6.48009C7.8916 6.89895 8.23115 7.2385 8.65001 7.2385Z" fill="#303142"/>
<path id="Vector_13" d="M8.65009 6.6222C8.78098 6.6222 8.88709 6.51609 8.88709 6.3852C8.88709 6.2543 8.78098 6.14819 8.65009 6.14819C8.5192 6.14819 8.41309 6.2543 8.41309 6.3852C8.41309 6.51609 8.5192 6.6222 8.65009 6.6222Z" fill="#ED8B22"/>
</g>
</g>
<defs>
<clipPath id="clip0_22_1049">
<rect width="46" height="31" fill="white" transform="translate(0 0.437256)"/>
</clipPath>
</defs>
</svg>
