<svg width="26" height="21" viewBox="0 0 26 21" fill="none" xmlns="http://www.w3.org/2000/svg">
<g id="mastercard.svg" clip-path="url(#clip0_22_937)">
<g id="Group">
<path id="Vector" d="M25.2003 20.3227V20.3741H25.2483C25.2573 20.3743 25.2662 20.372 25.274 20.3676C25.2771 20.3654 25.2796 20.3624 25.2813 20.359C25.283 20.3555 25.2838 20.3517 25.2836 20.3479C25.2838 20.3441 25.283 20.3404 25.2813 20.3371C25.2796 20.3337 25.2771 20.3308 25.274 20.3287C25.2662 20.3241 25.2573 20.3218 25.2483 20.3222H25.2003V20.3227ZM25.2488 20.2863C25.2693 20.2851 25.2897 20.291 25.3064 20.303C25.3131 20.3085 25.3184 20.3155 25.3219 20.3234C25.3254 20.3313 25.327 20.3399 25.3266 20.3485C25.3269 20.356 25.3256 20.3634 25.3228 20.3703C25.32 20.3772 25.3158 20.3834 25.3104 20.3885C25.2975 20.3997 25.2814 20.4064 25.2643 20.4077L25.3286 20.4809H25.2791L25.22 20.4082H25.2008V20.4809H25.1595V20.2865H25.2494L25.2488 20.2863ZM25.2359 20.548C25.2576 20.5482 25.2792 20.5438 25.299 20.5352C25.3182 20.5269 25.3357 20.5151 25.3505 20.5003C25.3653 20.4856 25.3771 20.4681 25.3853 20.4489C25.4022 20.4082 25.4022 20.3624 25.3853 20.3217C25.377 20.3025 25.3652 20.2851 25.3505 20.2703C25.3357 20.2555 25.3182 20.2437 25.299 20.2354C25.279 20.2272 25.2576 20.2231 25.2359 20.2233C25.2139 20.2231 25.1921 20.2272 25.1717 20.2354C25.1521 20.2435 25.1342 20.2554 25.1191 20.2703C25.0964 20.2936 25.081 20.3231 25.0749 20.3551C25.0688 20.3871 25.0722 20.4202 25.0848 20.4502C25.0926 20.4695 25.1043 20.487 25.1191 20.5016C25.1342 20.5165 25.1521 20.5283 25.1717 20.5365C25.192 20.5451 25.2139 20.5495 25.2359 20.5493V20.548ZM25.2359 20.1766C25.2924 20.1765 25.3467 20.1987 25.387 20.2383C25.4064 20.2573 25.4219 20.2799 25.4325 20.305C25.4435 20.3307 25.4491 20.3583 25.4491 20.3863C25.4491 20.4142 25.4435 20.4419 25.4325 20.4676C25.4216 20.4925 25.4062 20.5151 25.387 20.5343C25.3672 20.5532 25.3443 20.5684 25.3192 20.5793C25.2929 20.5904 25.2646 20.5961 25.2359 20.596C25.207 20.5962 25.1783 20.5905 25.1516 20.5793C25.1263 20.5687 25.1031 20.5534 25.0834 20.5343C25.0642 20.5144 25.0489 20.491 25.0385 20.4654C25.0275 20.4397 25.0219 20.412 25.0219 20.3841C25.0219 20.3561 25.0275 20.3285 25.0385 20.3028C25.0491 20.2778 25.0646 20.2551 25.084 20.2361C25.1035 20.2166 25.1267 20.2013 25.1523 20.1911C25.1789 20.1799 25.2076 20.1742 25.2366 20.1744L25.2359 20.1766ZM5.55475 19.4255C5.55475 19.0547 5.79768 18.7501 6.19472 18.7501C6.57415 18.7501 6.8302 19.0416 6.8302 19.4255C6.8302 19.8095 6.57415 20.101 6.19472 20.101C5.79768 20.101 5.55475 19.7964 5.55475 19.4255ZM7.26271 19.4255V18.3703H6.80397V18.6273C6.65847 18.4374 6.43778 18.3182 6.13765 18.3182C5.54639 18.3182 5.08238 18.782 5.08238 19.426C5.08238 20.0701 5.54613 20.5339 6.13765 20.5339C6.43765 20.5339 6.65847 20.4146 6.80397 20.2248V20.4809H7.2622V19.4255H7.26271ZM22.7629 19.4255C22.7629 19.0547 23.0059 18.7501 23.403 18.7501C23.7829 18.7501 24.0385 19.0416 24.0385 19.4255C24.0385 19.8095 23.7829 20.101 23.403 20.101C23.006 20.101 22.7629 19.7964 22.7629 19.4255ZM24.4714 19.4255V17.5232H24.0123V18.6273C23.8668 18.4374 23.6461 18.3182 23.346 18.3182C22.7547 18.3182 22.2907 18.782 22.2907 19.426C22.2907 20.0701 22.7544 20.5339 23.346 20.5339C23.6461 20.5339 23.8668 20.4146 24.0123 20.2248V20.4809H24.4714V19.4255ZM12.9562 18.7284C13.2519 18.7284 13.4417 18.9137 13.4902 19.2401H12.3956C12.4446 18.9354 12.6295 18.7284 12.9564 18.7284H12.9562ZM12.9655 18.317C12.3472 18.317 11.9147 18.7669 11.9147 19.4249C11.9147 20.0957 12.3646 20.5327 12.9962 20.5327C13.314 20.5327 13.605 20.4534 13.861 20.2371L13.6362 19.8971C13.4593 20.0385 13.2341 20.1178 13.0224 20.1178C12.7268 20.1178 12.4577 19.9809 12.3915 19.6011H13.9579C13.9624 19.544 13.967 19.4865 13.967 19.4248C13.9624 18.767 13.5557 18.3169 12.9652 18.3169L12.9655 18.317ZM18.5038 19.4248C18.5038 19.0539 18.7467 18.7493 19.1438 18.7493C19.5232 18.7493 19.7793 19.0408 19.7793 19.4248C19.7793 19.8087 19.5232 20.1002 19.1438 20.1002C18.7467 20.1002 18.5037 19.7956 18.5037 19.4248H18.5038ZM20.2116 19.4248V18.3703H19.7532V18.6273C19.6071 18.4374 19.387 18.3182 19.0868 18.3182C18.4956 18.3182 18.0316 18.782 18.0316 19.426C18.0316 20.0701 18.4953 20.5339 19.0868 20.5339C19.387 20.5339 19.6071 20.4146 19.7532 20.2248V20.4809H20.2118V19.4255L20.2116 19.4248ZM15.9132 19.4248C15.9132 20.0647 16.3587 20.5326 17.0386 20.5326C17.3564 20.5326 17.5681 20.4619 17.797 20.2811L17.5767 19.9102C17.4044 20.034 17.2236 20.1002 17.024 20.1002C16.6578 20.0957 16.3885 19.8309 16.3885 19.4248C16.3885 19.0186 16.6578 18.7539 17.024 18.7493C17.2231 18.7493 17.4039 18.8155 17.5767 18.9393L17.797 18.5685C17.5677 18.3876 17.356 18.3169 17.0386 18.3169C16.3587 18.3169 15.9132 18.7847 15.9132 19.4248ZM21.8271 18.3169C21.5624 18.3169 21.3901 18.4407 21.2709 18.626V18.3703H20.8163V20.4798H21.2755V19.2973C21.2755 18.9482 21.4255 18.7542 21.7254 18.7542C21.8236 18.7528 21.9211 18.7708 22.0123 18.8073L22.1537 18.3749C22.0521 18.3349 21.9197 18.3173 21.8268 18.3173L21.8271 18.3169ZM9.53071 18.538C9.31002 18.3925 9.0059 18.3173 8.67043 18.3173C8.13598 18.3173 7.79189 18.5735 7.79189 18.9926C7.79189 19.3366 8.04806 19.5488 8.51978 19.615L8.73649 19.6458C8.98804 19.6812 9.1068 19.7474 9.1068 19.8665C9.1068 20.0296 8.93971 20.1227 8.62595 20.1227C8.30822 20.1227 8.07891 20.0212 7.92428 19.902L7.70873 20.2597C7.96027 20.4451 8.27801 20.5335 8.6221 20.5335C9.23135 20.5335 9.58444 20.2466 9.58444 19.8449C9.58444 19.4741 9.30653 19.2802 8.84741 19.214L8.63122 19.1826C8.43264 19.1569 8.27351 19.1169 8.27351 18.9755C8.27351 18.8213 8.42351 18.7285 8.67518 18.7285C8.94446 18.7285 9.20513 18.83 9.33289 18.9093L9.53148 18.5385L9.53071 18.538ZM15.4498 18.3177C15.1852 18.3177 15.0128 18.4415 14.8942 18.6268V18.3703H14.4395V20.4798H14.8983V19.2973C14.8983 18.9482 15.0483 18.7542 15.3482 18.7542C15.4463 18.7528 15.5439 18.7708 15.635 18.8073L15.7764 18.3749C15.6749 18.3349 15.5425 18.3173 15.4496 18.3173L15.4498 18.3177ZM11.5352 18.3703H10.785V17.7303H10.3213V18.3703H9.89342V18.7895H10.3213V19.7519C10.3213 20.2413 10.5113 20.5329 11.0539 20.5329C11.253 20.5329 11.4823 20.4712 11.6278 20.3697L11.4953 19.9769C11.3584 20.0563 11.2084 20.0962 11.0892 20.0962C10.8598 20.0962 10.785 19.9548 10.785 19.7431V18.7899H11.5352V18.3703ZM4.67672 20.4803V19.1564C4.67672 18.6578 4.35899 18.3223 3.84678 18.3178C3.5775 18.3133 3.29973 18.3971 3.10526 18.6931C2.95976 18.4592 2.73045 18.3178 2.40809 18.3178C2.18277 18.3178 1.96259 18.384 1.79022 18.6311V18.3703H1.33109V20.4798H1.79382V19.3101C1.79382 18.9439 1.9969 18.7493 2.31053 18.7493C2.61516 18.7493 2.76927 18.9479 2.76927 19.3055V20.4795H3.23302V19.3098C3.23302 18.9437 3.44472 18.7491 3.74922 18.7491C4.06246 18.7491 4.21194 18.9476 4.21194 19.3052V20.4793L4.67672 20.4803Z" fill="white"/>
<path id="Vector_2" d="M25.462 13.4627V13.1543H25.3817L25.2888 13.366L25.1963 13.1543H25.1157V13.4627H25.1728V13.2304L25.2597 13.4309H25.3188L25.4057 13.2298V13.4627H25.4623H25.462ZM24.9524 13.4627V13.2071H25.0552V13.155H24.7925V13.2071H24.8953V13.4627H24.9519H24.9524Z" fill="#F79410"/>
<path id="Vector_3" d="M16.3313 14.7858H9.37943V2.29224H16.3315L16.3313 14.7858Z" fill="#FF5F00"/>
<path id="Vector_4" d="M9.82008 8.53841C9.82008 6.00409 11.0067 3.7465 12.8545 2.29162C11.4558 1.18873 9.72585 0.59015 7.94463 0.592782C3.55684 0.592782 3.43323e-05 4.1501 3.43323e-05 8.53841C3.43323e-05 12.9267 3.55684 16.484 7.94463 16.484C9.72589 16.4867 11.4559 15.8881 12.8546 14.7852C11.0069 13.3305 9.82008 11.0728 9.82008 8.53841Z" fill="#EB001B"/>
<path id="Vector_5" d="M25.7103 8.53915C25.7103 12.9274 22.1534 16.4848 17.7656 16.4848C15.9842 16.4874 14.254 15.8888 12.855 14.7859C14.7033 13.331 15.8899 11.0736 15.8899 8.53915C15.8899 6.0047 14.7033 3.74725 12.855 2.29236C14.2539 1.18949 15.9841 0.590929 17.7655 0.593514C22.1533 0.593514 25.7101 4.15084 25.7101 8.53915" fill="#F79E1B"/>
</g>
</g>
<defs>
<clipPath id="clip0_22_937">
<rect width="26" height="20" fill="white" transform="translate(3.43323e-05 0.593506)"/>
</clipPath>
</defs>
</svg>
