<svg width="21" height="17" viewBox="0 0 21 17" fill="none" xmlns="http://www.w3.org/2000/svg">
<path id="Vector" d="M0.396484 15.0408C0.396484 15.9839 1.16168 16.7491 2.10482 16.7491H19.1882C20.1313 16.7491 20.8965 15.9839 20.8965 15.0408V8.77691H0.396484V15.0408ZM7.22982 12.6207C7.22982 12.3858 7.422 12.1936 7.6569 12.1936H12.4972C12.7321 12.1936 12.9243 12.3858 12.9243 12.6207V14.0443C12.9243 14.2792 12.7321 14.4714 12.4972 14.4714H7.6569C7.422 14.4714 7.22982 14.2792 7.22982 14.0443V12.6207ZM2.67426 12.6207C2.67426 12.3858 2.86645 12.1936 3.10135 12.1936H5.66385C5.89874 12.1936 6.09093 12.3858 6.09093 12.6207V14.0443C6.09093 14.2792 5.89874 14.4714 5.66385 14.4714H3.10135C2.86645 14.4714 2.67426 14.2792 2.67426 14.0443V12.6207ZM20.8965 2.51302V4.22135H0.396484V2.51302C0.396484 1.56988 1.16168 0.804688 2.10482 0.804688H19.1882C20.1313 0.804688 20.8965 1.56988 20.8965 2.51302Z" fill="#898989"/>
</svg>
