<svg width="21" height="18" viewBox="0 0 21 18" fill="none" xmlns="http://www.w3.org/2000/svg">
<path id="Vector" d="M20.384 15.3236H17.8215V4.60755C17.8215 3.73437 17.1319 3.0236 16.284 3.0236H12.6965V5.0736H15.7715V17.3736H20.384C20.6671 17.3736 20.8965 17.1443 20.8965 16.8611V15.8361C20.8965 15.5529 20.6671 15.3236 20.384 15.3236ZM10.3979 1.00595L4.24792 2.59919C3.79148 2.71738 3.47148 3.14212 3.47148 3.62963V15.3236H0.908984C0.625828 15.3236 0.396484 15.5529 0.396484 15.8361V16.8611C0.396484 17.1443 0.625828 17.3736 0.908984 17.3736H11.6715V2.0364C11.6715 1.34516 11.045 0.838109 10.3979 1.00595ZM8.85273 10.1986C8.42832 10.1986 8.08398 9.73959 8.08398 9.1736C8.08398 8.60761 8.42832 8.1486 8.85273 8.1486C9.27715 8.1486 9.62148 8.60761 9.62148 9.1736C9.62148 9.73959 9.27715 10.1986 8.85273 10.1986Z" fill="#898989"/>
</svg>
