<svg width="21" height="22" viewBox="0 0 21 22" fill="none" xmlns="http://www.w3.org/2000/svg">
<path id="Vector" d="M20.8965 2.84886V19.3999C20.8965 20.5118 20.0271 21.3766 18.9197 21.3766H2.37327C1.27963 21.3721 0.396484 20.521 0.396484 19.3953V2.84886C0.396484 1.74607 1.25675 0.87207 2.37327 0.87207H18.9243C20.0225 0.87207 20.8965 1.73234 20.8965 2.84886ZM19.1897 19.3953V2.84886C19.1897 2.71158 19.0707 2.58345 18.9243 2.58345H18.4987L13.4515 5.99707L10.6465 3.7137L7.84604 5.99707L2.79883 2.57888H2.37327C2.22684 2.57888 2.10787 2.707 2.10787 2.84428V19.3953C2.10787 19.5326 2.22684 19.6607 2.37327 19.6607H18.9243C19.0707 19.6653 19.1897 19.5371 19.1897 19.3953V19.3953ZM7.26948 7.91895V9.61203H3.90619V7.91895H7.26948ZM7.26948 11.3234V13.0302H3.90619V11.3234H7.26948ZM7.7774 4.58312L10.2484 2.58345H4.82595L7.7774 4.58312V4.58312ZM17.3868 7.91895V9.61203H8.41802V7.91895H17.3868ZM17.3868 11.3234V13.0302H8.41802V11.3234H17.3868ZM13.5156 4.58312L16.467 2.58345H11.0492L13.5156 4.58312V4.58312ZM17.3868 14.737V16.4438H12.8383V14.737H17.3868V14.737Z" fill="#898989"/>
</svg>
