<svg width="21" height="18" viewBox="0 0 21 18" fill="none" xmlns="http://www.w3.org/2000/svg">
<path id="Vector" d="M8.59648 11.5477H8.59584C8.59584 11.0294 8.63877 11.268 5.87159 5.73366C5.30623 4.60328 3.68737 4.60104 3.12106 5.73366C0.3305 11.3154 0.397125 11.0457 0.397125 11.5477H0.396484C0.396484 12.9628 2.2322 14.1102 4.49648 14.1102C6.76077 14.1102 8.59648 12.9628 8.59648 11.5477ZM4.49648 6.42266L6.80273 11.0352H2.19023L4.49648 6.42266ZM20.8958 11.5477C20.8958 11.0294 20.9388 11.268 18.1716 5.73366C17.6062 4.60328 15.9874 4.60104 15.4211 5.73366C12.6305 11.3154 12.6971 11.0457 12.6971 11.5477H12.6965C12.6965 12.9628 14.5322 14.1102 16.7965 14.1102C19.0608 14.1102 20.8965 12.9628 20.8965 11.5477H20.8958ZM14.4902 11.0352L16.7965 6.42266L19.1027 11.0352H14.4902ZM17.309 15.1352H11.6715V5.69395C12.4245 5.36434 12.9899 4.6856 13.1574 3.86016H17.309C17.5921 3.86016 17.8215 3.63081 17.8215 3.34766V2.32266C17.8215 2.0395 17.5921 1.81016 17.309 1.81016H12.685C12.2173 1.19131 11.4822 0.785156 10.6465 0.785156C9.81079 0.785156 9.07567 1.19131 8.60801 1.81016H3.98398C3.70083 1.81016 3.47148 2.0395 3.47148 2.32266V3.34766C3.47148 3.63081 3.70083 3.86016 3.98398 3.86016H8.13555C8.30308 4.68528 8.86811 5.36434 9.62148 5.69395V15.1352H3.98398C3.70083 15.1352 3.47148 15.3645 3.47148 15.6477V16.6727C3.47148 16.9558 3.70083 17.1852 3.98398 17.1852H17.309C17.5921 17.1852 17.8215 16.9558 17.8215 16.6727V15.6477C17.8215 15.3645 17.5921 15.1352 17.309 15.1352Z" fill="#898989"/>
</svg>
