<svg width="19" height="21" viewBox="0 0 19 21" fill="none" xmlns="http://www.w3.org/2000/svg">
<path id="Vector" d="M16.4121 9.28906H15.4512V6.40625C15.4512 3.05098 12.7205 0.320312 9.36523 0.320312C6.00996 0.320312 3.2793 3.05098 3.2793 6.40625V9.28906H2.31836C1.25732 9.28906 0.396484 10.1499 0.396484 11.2109V18.8984C0.396484 19.9595 1.25732 20.8203 2.31836 20.8203H16.4121C17.4731 20.8203 18.334 19.9595 18.334 18.8984V11.2109C18.334 10.1499 17.4731 9.28906 16.4121 9.28906ZM12.248 9.28906H6.48242V6.40625C6.48242 4.8167 7.77568 3.52344 9.36523 3.52344C10.9548 3.52344 12.248 4.8167 12.248 6.40625V9.28906Z" fill="#898989"/>
</svg>
