<svg width="21" height="18" viewBox="0 0 21 18" fill="none" xmlns="http://www.w3.org/2000/svg">
<path id="Vector" d="M7.05902 12.2584C6.98247 12.2584 6.90591 12.2696 6.83288 12.2933C6.41776 12.4281 5.98117 12.5146 5.52152 12.5146C5.06188 12.5146 4.62529 12.4281 4.20985 12.2933C4.13682 12.2696 4.06058 12.2584 3.98403 12.2584C1.99617 12.2584 0.385966 13.8753 0.396536 15.8657C0.40102 16.7069 1.09257 17.3834 1.93403 17.3834H9.10901C9.95047 17.3834 10.642 16.7069 10.6465 15.8657C10.6571 13.8753 9.04687 12.2584 7.05902 12.2584ZM5.52152 11.2334C7.21982 11.2334 8.59652 9.85667 8.59652 8.15838C8.59652 6.46009 7.21982 5.08339 5.52152 5.08339C3.82323 5.08339 2.44653 6.46009 2.44653 8.15838C2.44653 9.85667 3.82323 11.2334 5.52152 11.2334ZM19.359 0.983398H7.05902C6.21115 0.983398 5.52152 1.69609 5.52152 2.57182V4.05839C6.27169 4.05839 6.96613 4.27556 7.57152 4.62855V3.03339H18.8465V12.2584H16.7965V10.2084H12.6965V12.2584H10.2544C10.8662 12.793 11.3153 13.4989 11.5258 14.3084H19.359C20.2069 14.3084 20.8965 13.5957 20.8965 12.7199V2.57182C20.8965 1.69609 20.2069 0.983398 19.359 0.983398Z" fill="#898989"/>
</svg>
