<svg width="21" height="18" viewBox="0 0 21 18" fill="none" xmlns="http://www.w3.org/2000/svg">
<path id="Vector" d="M19.9536 12.9507C20.0369 12.499 20.0369 12.0377 19.9536 11.586L20.7801 11.1087C20.8762 11.0543 20.9179 10.9421 20.8858 10.8364C20.6712 10.1445 20.3028 9.5166 19.8223 8.99764C19.7486 8.91755 19.6301 8.89833 19.534 8.95279L18.7075 9.43011C18.3583 9.13219 17.9579 8.90154 17.5254 8.74777V7.79314C17.5254 7.68422 17.4485 7.58812 17.3428 7.56569C16.6284 7.40552 15.9012 7.41193 15.2221 7.56569C15.1164 7.58812 15.0395 7.68422 15.0395 7.79314V8.74777C14.607 8.90154 14.2066 9.13219 13.8574 9.43011L13.0309 8.95279C12.938 8.89833 12.8163 8.91755 12.7426 8.99764C12.2621 9.5166 11.8937 10.1445 11.6791 10.8364C11.647 10.9421 11.6919 11.0543 11.7848 11.1087L12.6113 11.586C12.528 12.0377 12.528 12.499 12.6113 12.9507L11.7848 13.428C11.6887 13.4825 11.647 13.5946 11.6791 13.7003C11.8937 14.3923 12.2621 15.0169 12.7426 15.5391C12.8163 15.6192 12.9348 15.6384 13.0309 15.584L13.8574 15.1066C14.2066 15.4046 14.607 15.6352 15.0395 15.789V16.7436C15.0395 16.8525 15.1164 16.9486 15.2221 16.9711C15.9365 17.1312 16.6637 17.1248 17.3428 16.9711C17.4485 16.9486 17.5254 16.8525 17.5254 16.7436V15.789C17.9579 15.6352 18.3583 15.4046 18.7075 15.1066L19.534 15.584C19.6269 15.6384 19.7486 15.6192 19.8223 15.5391C20.3028 15.0202 20.6712 14.3923 20.8858 13.7003C20.9179 13.5946 20.873 13.4825 20.7801 13.428L19.9536 12.9507V12.9507ZM16.2857 13.8221C15.4271 13.8221 14.732 13.1237 14.732 12.2684C14.732 11.4131 15.4303 10.7147 16.2857 10.7147C17.141 10.7147 17.8393 11.4131 17.8393 12.2684C17.8393 13.1237 17.1442 13.8221 16.2857 13.8221ZM7.57224 9.19305C9.83709 9.19305 11.6727 7.35747 11.6727 5.09262C11.6727 2.82777 9.83709 0.992188 7.57224 0.992188C5.30739 0.992188 3.47181 2.82777 3.47181 5.09262C3.47181 7.35747 5.30739 9.19305 7.57224 9.19305ZM14.0176 16.4489C13.9439 16.4105 13.8702 16.3656 13.7998 16.324L13.5467 16.4713C13.3545 16.5802 13.1367 16.6411 12.9188 16.6411C12.5696 16.6411 12.2333 16.4937 11.993 16.2375C11.4068 15.6032 10.9583 14.8311 10.7052 14.0079C10.529 13.4408 10.7661 12.8418 11.2786 12.5439L11.5317 12.3965C11.5285 12.3132 11.5285 12.2299 11.5317 12.1466L11.2786 11.9993C10.7661 11.7046 10.529 11.1023 10.7052 10.5353C10.7341 10.4424 10.7757 10.3495 10.8077 10.2566C10.686 10.247 10.5675 10.2182 10.4425 10.2182H9.90757C9.1964 10.5449 8.40514 10.7307 7.57224 10.7307C6.73934 10.7307 5.95129 10.5449 5.23692 10.2182H4.70194C2.32497 10.2182 0.396484 12.1466 0.396484 14.5236V15.8563C0.396484 16.7052 1.08523 17.3939 1.93415 17.3939H13.2103C13.5339 17.3939 13.835 17.2914 14.0817 17.1216C14.0432 16.9999 14.0176 16.875 14.0176 16.7436V16.4489Z" fill="#898989"/>
</svg>
