<svg width="21" height="19" viewBox="0 0 21 19" fill="none" xmlns="http://www.w3.org/2000/svg">
<path id="Vector" d="M20.8965 8.58464C20.8965 7.74364 20.4356 7.01724 19.7576 6.6229V1.18221C19.7576 0.870799 19.5092 0.0429688 18.6187 0.0429688C18.3653 0.0429688 18.1137 0.127674 17.9076 0.292812L14.8814 2.71402C13.3613 3.92907 11.453 4.59852 9.5076 4.59852H2.67426C1.41615 4.59852 0.396484 5.61819 0.396484 6.8763V10.293C0.396484 11.5511 1.41615 12.5707 2.67426 12.5707H3.87365C3.82418 12.9437 3.79607 13.3231 3.79607 13.7096C3.79607 15.1251 4.12563 16.4625 4.70576 17.658C4.89047 18.0385 5.29371 18.2652 5.71652 18.2652H8.36016C9.28729 18.2652 9.84392 17.2032 9.28195 16.4657C8.69827 15.6998 8.35127 14.7446 8.35127 13.7096C8.35127 13.3142 8.40892 12.9341 8.50822 12.5707H9.5076C11.453 12.5707 13.3613 13.2402 14.881 14.4553L17.9073 16.8765C18.1091 17.038 18.3598 17.1261 18.6183 17.1263C19.5053 17.1263 19.7572 16.3156 19.7572 15.9874V10.5467C20.4356 10.152 20.8965 9.42563 20.8965 8.58464ZM17.4798 13.6178L16.3036 12.6768C14.3817 11.1393 11.9676 10.293 9.5076 10.293V6.8763C11.9676 6.8763 14.3817 6.02996 16.3036 4.49246L17.4798 3.55146V13.6178Z" fill="#898989"/>
</svg>
