<svg width="21" height="19" viewBox="0 0 21 19" fill="none" xmlns="http://www.w3.org/2000/svg">
<path id="Vector" d="M4.95209 0.0234375C3.0651 0.0234375 1.53544 3.08277 1.53544 6.85675V12.9807C1.53544 14.4442 1.18666 15.2147 0.426095 17.4961C0.303309 17.8648 0.577709 18.2456 0.966354 18.2456H10.9643C11.4544 18.2456 11.8897 17.932 12.0449 17.4669C12.5015 16.0974 12.9243 14.8902 12.9243 12.9807V6.85675C12.9243 3.88141 13.7667 1.39295 15.0754 0.0234375H4.95209ZM3.81321 7.99563C3.49859 7.99563 3.24377 7.74081 3.24377 7.42619C3.24377 7.11157 3.49859 6.85675 3.81321 6.85675C4.12783 6.85675 4.38265 7.11157 4.38265 7.42619C4.38265 7.74081 4.12783 7.99563 3.81321 7.99563ZM6.09098 7.99563C5.77636 7.99563 5.52154 7.74081 5.52154 7.42619C5.52154 7.11157 5.77636 6.85675 6.09098 6.85675C6.4056 6.85675 6.66042 7.11157 6.66042 7.42619C6.66042 7.74081 6.4056 7.99563 6.09098 7.99563ZM8.36875 7.99563C8.05413 7.99563 7.79931 7.74081 7.79931 7.42619C7.79931 7.11157 8.05413 6.85675 8.36875 6.85675C8.68337 6.85675 8.93819 7.11157 8.93819 7.42619C8.93819 7.74081 8.68337 7.99563 8.36875 7.99563ZM10.6465 7.99563C10.3319 7.99563 10.0771 7.74081 10.0771 7.42619C10.0771 7.11157 10.3319 6.85675 10.6465 6.85675C10.9611 6.85675 11.216 7.11157 11.216 7.42619C11.216 7.74081 10.9611 7.99563 10.6465 7.99563ZM17.4798 0.0234375C15.5928 0.0234375 14.0632 3.08277 14.0632 6.85675C14.0632 10.6307 15.5928 13.6901 17.4798 13.6901C19.3668 13.6901 20.8965 10.6307 20.8965 6.85675C20.8965 3.08277 19.3668 0.0234375 17.4798 0.0234375ZM17.4798 9.13452C16.851 9.13452 16.3409 8.11486 16.3409 6.85675C16.3409 5.59864 16.851 4.57898 17.4798 4.57898C18.1087 4.57898 18.6187 5.59864 18.6187 6.85675C18.6187 8.11486 18.1087 9.13452 17.4798 9.13452Z" fill="#898989"/>
</svg>
