<svg width="21" height="16" viewBox="0 0 21 16" fill="none" xmlns="http://www.w3.org/2000/svg">
<path id="Vector" d="M20.2927 1.68914C19.0502 1.168 17.8068 0.969727 16.564 0.969727C12.6188 0.969406 8.67387 2.96652 4.72864 2.96652C3.73921 2.96652 2.75042 2.84096 1.76099 2.52706C1.64985 2.49183 1.53838 2.47517 1.42948 2.47517C0.878227 2.47517 0.396484 2.90182 0.396484 3.49407V13.6561C0.396484 14.0607 0.628067 14.4441 0.999944 14.5998C2.24242 15.1212 3.48585 15.3195 4.72864 15.3195C8.67387 15.3195 12.6191 13.3224 16.5643 13.3224C17.5538 13.3224 18.5425 13.4479 19.532 13.7618C19.6431 13.7971 19.7546 13.8137 19.8635 13.8137C20.4147 13.8137 20.8965 13.3871 20.8965 12.7948V2.63308C20.8962 2.22821 20.6646 1.84513 20.2927 1.68914V1.68914ZM10.6463 11.2196C9.23089 11.2196 8.08386 9.84256 8.08386 8.14461C8.08386 6.44634 9.23121 5.06966 10.6463 5.06966C12.0614 5.06966 13.2088 6.44634 13.2088 8.14461C13.2088 9.84321 12.0611 11.2196 10.6463 11.2196Z" fill="#898989"/>
</svg>
