<svg width="26" height="25" viewBox="0 0 26 25" fill="none" xmlns="http://www.w3.org/2000/svg">
<g id="Frame" clip-path="url(#clip0_179_17526)">
<path id="Vector" d="M3.8027 3.48645L21.9778 3.48645C22.2456 3.48645 22.5024 3.59283 22.6918 3.78219C22.8811 3.97155 22.9875 4.22838 22.9875 4.49618V20.6518C22.9875 20.9196 22.8811 21.1764 22.6918 21.3658C22.5024 21.5551 22.2456 21.6615 21.9778 21.6615H3.8027C3.5349 21.6615 3.27807 21.5551 3.08871 21.3658C2.89935 21.1764 2.79297 20.9196 2.79297 20.6518L2.79297 4.49618C2.79297 4.22838 2.89935 3.97155 3.08871 3.78219C3.27807 3.59283 3.5349 3.48645 3.8027 3.48645ZM20.968 7.76567L12.9629 14.9347L4.81242 7.74346L4.81242 19.6421H20.968V7.76567ZM5.32839 5.5059L12.9518 12.2327L20.4652 5.5059L5.32839 5.5059Z" fill="white"/>
</g>
<defs>
<clipPath id="clip0_179_17526">
<rect width="24.2334" height="24.2334" fill="white" transform="translate(0.773438 0.457275)"/>
</clipPath>
</defs>
</svg>
