<svg width="17" height="17" viewBox="0 0 17 17" fill="none" xmlns="http://www.w3.org/2000/svg">
<path id="Vector" d="M11.0998 8.36667L15.676 3.60955C16.2376 3.02579 16.2376 2.07931 15.676 1.49507L14.659 0.437824C14.0974 -0.145941 13.1869 -0.145941 12.6249 0.437824L8.04861 5.19494L3.47234 0.437824C2.91076 -0.145941 2.00026 -0.145941 1.43823 0.437824L0.42118 1.49507C-0.140393 2.07883 -0.140393 3.02531 0.42118 3.60955L4.99746 8.36667L0.42118 13.1238C-0.140393 13.7075 -0.140393 14.654 0.42118 15.2383L1.43823 16.2955C1.99981 16.8793 2.91076 16.8793 3.47234 16.2955L8.04861 11.5384L12.6249 16.2955C13.1865 16.8793 14.0974 16.8793 14.659 16.2955L15.676 15.2383C16.2376 14.6545 16.2376 13.708 15.676 13.1238L11.0998 8.36667Z" fill="white"/>
</svg>
