<svg width="38" height="39" viewBox="0 0 38 39" fill="none" xmlns="http://www.w3.org/2000/svg">
<g id="footer-whatsapp-4.svg" clip-path="url(#clip0_769_1523)">
<path id="Vector" d="M38 19.5938C38 9.10034 29.4934 0.59375 19 0.59375C8.50659 0.59375 0 9.10034 0 19.5938C0 30.0872 8.50659 38.5938 19 38.5938C29.4934 38.5938 38 30.0872 38 19.5938Z" fill="#3C3D41"/>
<path id="Vector_2" d="M19.0025 9.59375H18.9975C13.4838 9.59375 9 14.0788 9 19.5938C9 21.7812 9.705 23.8088 10.9037 25.455L9.6575 29.17L13.5013 27.9412C15.0825 28.9887 16.9688 29.5938 19.0025 29.5938C24.5162 29.5938 29 25.1076 29 19.5938C29 14.08 24.5162 9.59375 19.0025 9.59375Z" fill="white"/>
<path id="Vector_3" d="M24.1316 20.3363H24.1306C23.5151 20.3375 22.9033 20.2404 22.3183 20.0487C21.8556 19.8892 21.3433 19.9934 20.9799 20.3195L20.0039 21.0558C18.9717 20.4748 18.1184 19.6216 17.5372 18.5896L18.2447 17.6495C18.5879 17.2861 18.7077 16.7639 18.555 16.2859L18.5536 16.2817C18.3604 15.6948 18.2623 15.0807 18.2632 14.4628V14.4621C18.2632 13.7064 17.6505 13.0938 16.8947 13.0938H14.8684C14.1127 13.0938 13.5 13.7064 13.5 14.4621V14.4628C13.5067 20.3314 18.2624 25.0871 24.131 25.0938H24.1316C24.8873 25.0938 25.5 24.481 25.5 23.7253V21.7048C25.5 20.949 24.8873 20.3363 24.1316 20.3363Z" fill="#FCBE3F" stroke="white"/>
</g>
<defs>
<clipPath id="clip0_769_1523">
<rect width="38" height="38" fill="white" transform="translate(0 0.59375)"/>
</clipPath>
</defs>
</svg>
