<svg width="38" height="39" viewBox="0 0 38 39" fill="none" xmlns="http://www.w3.org/2000/svg">
<g id="footer-callcenter.svg" clip-path="url(#clip0_769_1543)">
<path id="Vector" d="M38 19.5938C38 9.10034 29.4934 0.59375 19 0.59375C8.50659 0.59375 0 9.10034 0 19.5938C0 30.0872 8.50659 38.5938 19 38.5938C29.4934 38.5938 38 30.0872 38 19.5938Z" fill="#3C3D41"/>
<path id="Vector_2" d="M20.9737 25.1532C20.1816 25.1547 19.3944 25.0296 18.6419 24.7824C18.29 24.6596 17.8991 24.7422 17.6272 24.9972L16.1507 26.1112C14.565 25.3151 13.2784 24.0287 12.482 22.4431L13.5664 21.0021C13.8402 20.7281 13.9382 20.3242 13.8203 19.9552C13.5722 19.2017 13.4463 18.4134 13.4474 17.6201C13.4474 17.0533 12.9879 16.5938 12.4211 16.5938H10.0263C9.4595 16.5938 9 17.0533 9 17.6201C9.00754 24.2299 14.3639 29.5863 20.9737 29.5938C21.5405 29.5938 22 29.1342 22 28.5674V26.1796C22 25.6128 21.5405 25.1532 20.9737 25.1532Z" fill="#FCBE3F"/>
<path id="Vector_3" fill-rule="evenodd" clip-rule="evenodd" d="M12.9998 11.5938C12.9998 10.4892 13.8952 9.59375 14.9998 9.59375H26.9998C28.1043 9.59375 28.9998 10.4892 28.9998 11.5938V19.3125C28.9998 20.4171 28.1043 21.3125 26.9998 21.3125H19.8569L18 23.5938L16.4283 21.3125H14.9998C14.8646 21.3125 14.7326 21.2991 14.605 21.2736C14.8808 20.7867 14.948 20.1992 14.7729 19.6509L14.7701 19.6425C14.5554 18.9903 14.4464 18.3081 14.4474 17.6215V17.6201C14.4474 16.7021 13.8369 15.9267 12.9998 15.6776V11.5938ZM18 15.5938C18 16.146 17.5523 16.5938 17 16.5938C16.4478 16.5938 16 16.146 16 15.5938C16 15.0415 16.4478 14.5938 17 14.5938C17.5523 14.5938 18 15.0415 18 15.5938ZM21 16.5938C21.5523 16.5938 22 16.146 22 15.5938C22 15.0415 21.5523 14.5938 21 14.5938C20.4478 14.5938 20 15.0415 20 15.5938C20 16.146 20.4478 16.5938 21 16.5938ZM26 15.5938C26 16.146 25.5523 16.5938 25 16.5938C24.4478 16.5938 24 16.146 24 15.5938C24 15.0415 24.4478 14.5938 25 14.5938C25.5523 14.5938 26 15.0415 26 15.5938Z" fill="white"/>
</g>
<defs>
<clipPath id="clip0_769_1543">
<rect width="38" height="38" fill="white" transform="translate(0 0.59375)"/>
</clipPath>
</defs>
</svg>
