<svg width="125" height="22" viewBox="0 0 125 22" fill="none" xmlns="http://www.w3.org/2000/svg">
<g id="qris.svg" clip-path="url(#clip0_22_951)">
<path id="Vector" fill-rule="evenodd" clip-rule="evenodd" d="M1.25771 7.60253H0.307129V1.22441C0.307129 0.752187 0.710871 0.55236 0.912743 0.511475H7.53616V1.4084H1.74834C1.35584 1.4084 1.25771 1.7457 1.25771 1.91436V7.60253ZM55.004 11.9723H55.9546V18.3504C55.9546 18.8226 55.5509 19.0224 55.349 19.0633H48.7256V18.1664H54.5134C54.9059 18.1664 55.004 17.8291 55.004 17.6604V11.9723ZM2.51496 2.38983C2.43029 2.38983 2.36164 2.45848 2.36164 2.54315V16.4953C2.36164 16.58 2.43029 16.6486 2.51496 16.6486H6.07198H6.07197H11.3462V12.9382H6.07198V2.38983H2.51496ZM7.60515 2.38983V6.10017H12.9253V11.4202H16.6357V6.10017V2.54315C16.6357 2.45848 16.5671 2.38983 16.4824 2.38983H7.60515ZM18.3069 6.10017V2.38983H32.5503V6.10017V11.3744H28.8553V11.3742H18.3069V7.66386H28.8553V6.10017H18.3069ZM37.8245 2.38983H34.1142V16.6946H37.8245V2.38983ZM44.9692 7.69454V6.10018H53.7392V2.38984H39.4344V6.10018V7.6947V11.4049H48.2043V12.9842H39.4344V16.6945H53.7392V12.9842V11.4049V11.3744V7.69454H44.9692ZM18.3069 11.3744H21.7259H22.0172H27.138L32.6576 16.6946H27.138L22.0172 11.6607V16.6946H18.3069V11.3744ZM12.9253 21.1101H16.6357V12.9382H12.9253V21.1101ZM8.64772 8.67573H10.3342V10.3622H8.64772V8.67573ZM7.57448 7.60249H8.64772H10.3342H11.4075V8.67573V10.3622V11.4355H10.3342H8.64772H7.57448V10.3622V8.67573V7.60249Z" fill="white"/>
<mask id="mask0_22_951" style="mask-type:alpha" maskUnits="userSpaceOnUse" x="57" y="2" width="68" height="17">
<g id="path-2-outside-1">
<path id="Vector_2" d="M124.213 2.12085H57.2131V18.1208H124.213V2.12085Z" fill="white"/>
<path id="Vector_3" d="M62.3639 5.85315C62.3639 6.29225 62.2911 6.67591 62.1454 7.00414C61.9998 7.3302 61.7987 7.59214 61.5422 7.78994L62.3084 8.39642L61.6009 8.99636L60.5803 8.17469C60.4847 8.18774 60.389 8.19426 60.2934 8.19426C59.8891 8.19426 59.5304 8.10079 59.2174 7.91385C58.9044 7.72691 58.6598 7.45954 58.4838 7.11174C58.3099 6.76394 58.2197 6.36398 58.2131 5.91184V5.66078C58.2131 5.19342 58.2979 4.78259 58.4675 4.42827C58.6392 4.07395 58.8826 3.80006 59.1978 3.6066C59.5152 3.41314 59.8782 3.31641 60.2869 3.31641C60.689 3.31641 61.0477 3.41205 61.3629 3.60334C61.6781 3.79463 61.9226 4.06743 62.0965 4.42175C62.2726 4.77389 62.3617 5.17821 62.3639 5.63469V5.85315ZM61.1998 5.65426C61.1998 5.18256 61.1205 4.82498 60.9618 4.58152C60.8053 4.33589 60.5803 4.21307 60.2869 4.21307C59.9847 4.21307 59.7576 4.33371 59.6054 4.575C59.4532 4.81628 59.3761 5.16951 59.3739 5.63469V5.85315C59.3739 6.3205 59.4511 6.67917 59.6054 6.92915C59.7597 7.17695 59.9891 7.30086 60.2934 7.30086C60.5847 7.30086 60.8075 7.17804 60.9618 6.93241C61.1183 6.68678 61.1977 6.33355 61.1998 5.87272V5.65426Z" fill="black"/>
<path id="Vector_4" d="M64.7115 6.45307H64.092V8.12902H62.9475V3.38159H64.8158C65.3788 3.38159 65.819 3.50658 66.1364 3.75656C66.4537 4.00654 66.6124 4.35977 66.6124 4.81625C66.6124 5.14666 66.545 5.42055 66.4103 5.63792C66.2777 5.8553 66.069 6.03137 65.7842 6.16614L66.7755 8.08011V8.12902H65.5495L64.7115 6.45307ZM64.092 5.56945H64.8158C65.0332 5.56945 65.1962 5.51293 65.3049 5.3999C65.4158 5.28469 65.4712 5.12492 65.4712 4.92059C65.4712 4.71626 65.4158 4.55649 65.3049 4.44128C65.1941 4.3239 65.031 4.26521 64.8158 4.26521H64.092V5.56945Z" fill="black"/>
<path id="Vector_5" d="M72.8076 6.52165C72.7923 6.85206 72.7032 7.14443 72.5402 7.39875C72.3772 7.65091 72.1478 7.84654 71.8522 7.98566C71.5587 8.12478 71.2229 8.19434 70.8447 8.19434C70.2208 8.19434 69.7296 7.99109 69.3709 7.58461C69.0122 7.17812 68.8329 6.60426 68.8329 5.86301V5.62825C68.8329 5.16307 68.9133 4.75659 69.0742 4.40879C69.2372 4.05882 69.4709 3.78928 69.7752 3.60016C70.0795 3.40887 70.4317 3.31323 70.8316 3.31323C71.4077 3.31323 71.8707 3.46539 72.2206 3.76971C72.5706 4.07186 72.7695 4.48922 72.8173 5.02178H71.6761C71.6674 4.73267 71.5946 4.52508 71.4577 4.39901C71.3207 4.27293 71.112 4.20989 70.8316 4.20989C70.5469 4.20989 70.3382 4.31641 70.2056 4.52943C70.073 4.74246 70.0034 5.08264 69.9969 5.55V5.88584C69.9969 6.39232 70.06 6.75424 70.186 6.97162C70.3143 7.18899 70.5338 7.29767 70.8447 7.29767C71.1077 7.29767 71.3088 7.23572 71.4479 7.11182C71.587 6.98792 71.6609 6.7912 71.6696 6.52165H72.8076Z" fill="black"/>
<path id="Vector_6" d="M73.1597 6.33248C73.1597 5.98033 73.2282 5.66732 73.3651 5.39343C73.5021 5.11736 73.6988 4.90543 73.9553 4.75761C74.2118 4.6098 74.5128 4.53589 74.8585 4.53589C75.3867 4.53589 75.803 4.70001 76.1073 5.02824C76.4116 5.3543 76.5638 5.79883 76.5638 6.36182V6.40095C76.5638 6.95091 76.4105 7.38782 76.104 7.71171C75.7997 8.03342 75.3867 8.19428 74.865 8.19428C74.3629 8.19428 73.9596 8.04429 73.6553 7.74432C73.351 7.44217 73.1869 7.03351 73.163 6.51833L73.1597 6.33248ZM74.2585 6.40095C74.2585 6.72701 74.3096 6.96612 74.4118 7.11828C74.5139 7.27044 74.665 7.34652 74.865 7.34652C75.2563 7.34652 75.4562 7.04546 75.4649 6.44334V6.33248C75.4649 5.69992 75.2628 5.38365 74.8585 5.38365C74.4911 5.38365 74.2922 5.65645 74.2618 6.20206L74.2585 6.40095Z" fill="black"/>
<path id="Vector_7" d="M76.9094 6.33906C76.9094 5.78041 77.03 5.34023 77.2713 5.01852C77.5126 4.69681 77.8495 4.53595 78.2821 4.53595C78.5973 4.53595 78.8625 4.65985 79.0777 4.90766V3.12085H80.1798V8.12913H79.1918L79.1364 7.7509C78.9103 8.04652 78.6234 8.19434 78.2756 8.19434C77.856 8.19434 77.5235 8.03348 77.2778 7.71177C77.0322 7.39006 76.9094 6.93249 76.9094 6.33906ZM78.0082 6.40753C78.0082 7.03357 78.1908 7.34658 78.556 7.34658C78.7994 7.34658 78.9733 7.24442 79.0777 7.04009V5.69672C78.9777 5.48805 78.806 5.38371 78.5625 5.38371C78.2234 5.38371 78.0397 5.6576 78.0115 6.20538L78.0082 6.40753Z" fill="black"/>
<path id="Vector_8" d="M82.5111 8.19428C81.9698 8.19428 81.5318 8.03342 81.1971 7.71171C80.8623 7.38782 80.6949 6.96721 80.6949 6.44986V6.35856C80.6949 5.99772 80.7612 5.67927 80.8938 5.40321C81.0286 5.12715 81.2242 4.91412 81.4807 4.76413C81.7372 4.61197 82.0416 4.53589 82.3937 4.53589C82.8893 4.53589 83.2806 4.69023 83.5675 4.9989C83.8544 5.30539 83.9979 5.73362 83.9979 6.28357V6.71071H81.8133C81.8524 6.90852 81.9383 7.06394 82.0709 7.17697C82.2035 7.29001 82.3752 7.34652 82.5861 7.34652C82.9339 7.34652 83.2056 7.2248 83.4012 6.98134L83.9034 7.57477C83.7664 7.76388 83.5719 7.91495 83.3197 8.02799C83.0697 8.13885 82.8002 8.19428 82.5111 8.19428ZM82.3872 5.38365C82.0655 5.38365 81.8742 5.59667 81.8133 6.02272H82.9219V5.93795C82.9263 5.76188 82.8817 5.62602 82.7882 5.53037C82.6948 5.43256 82.5611 5.38365 82.3872 5.38365Z" fill="black"/>
<path id="Vector_9" d="M88.6051 6.8672C88.6051 6.69982 88.5454 6.5694 88.4258 6.47593C88.3084 6.38246 88.1008 6.28572 87.803 6.18573C87.5052 6.08574 87.2618 5.98901 87.0727 5.89554C86.4575 5.59339 86.1499 5.17821 86.1499 4.64999C86.1499 4.38697 86.226 4.15547 86.3781 3.95549C86.5325 3.75333 86.7499 3.59682 87.0303 3.48596C87.3107 3.37293 87.6259 3.31641 87.9758 3.31641C88.3171 3.31641 88.6225 3.37727 88.8921 3.499C89.1638 3.62073 89.3746 3.79463 89.5246 4.0207C89.6746 4.24459 89.7496 4.50109 89.7496 4.7902H88.6084C88.6084 4.59674 88.5486 4.44675 88.4291 4.34024C88.3117 4.23372 88.1519 4.18047 87.9498 4.18047C87.7454 4.18047 87.5835 4.22612 87.4639 4.31741C87.3465 4.40653 87.2879 4.52066 87.2879 4.65977C87.2879 4.7815 87.3531 4.89236 87.4835 4.99235C87.6139 5.09017 87.8432 5.19234 88.1715 5.29885C88.4997 5.40319 88.7693 5.51622 88.9801 5.63795C89.4931 5.93358 89.7496 6.34115 89.7496 6.86068C89.7496 7.27586 89.5931 7.60192 89.2801 7.83885C88.9671 8.07579 88.5378 8.19426 87.9921 8.19426C87.6074 8.19426 87.2585 8.12579 86.9455 7.98884C86.6346 7.84972 86.3999 7.66061 86.2412 7.4215C86.0847 7.18021 86.0064 6.90306 86.0064 6.59005H87.1542C87.1542 6.84437 87.2194 7.0324 87.3498 7.15413C87.4824 7.27368 87.6965 7.33346 87.9921 7.33346C88.1813 7.33346 88.3302 7.29325 88.4388 7.21282C88.5497 7.13022 88.6051 7.01501 88.6051 6.8672Z" fill="black"/>
<path id="Vector_10" d="M91.5658 3.72412V4.60122H92.1461V5.3642H91.5658V6.9782C91.5658 7.11079 91.5897 7.20318 91.6375 7.25535C91.6853 7.30752 91.7799 7.3336 91.9212 7.3336C92.0298 7.3336 92.1211 7.32708 92.195 7.31404V8.09984C91.9972 8.16288 91.7907 8.1944 91.5755 8.1944C91.1973 8.1944 90.918 8.10528 90.7376 7.92703C90.5571 7.74878 90.4669 7.47815 90.4669 7.11514V5.3642H90.017V4.60122H90.4669V3.72412H91.5658Z" fill="black"/>
<path id="Vector_11" d="M94.5688 8.12907C94.5296 8.05733 94.4949 7.95191 94.4644 7.81279C94.2623 8.06712 93.9797 8.19428 93.6167 8.19428C93.2841 8.19428 93.0015 8.09429 92.7689 7.8943C92.5363 7.69215 92.42 7.43891 92.42 7.13459C92.42 6.75201 92.5613 6.4629 92.8439 6.26727C93.1265 6.07163 93.5373 5.97381 94.0764 5.97381H94.4155V5.78796C94.4155 5.46407 94.2753 5.30213 93.9949 5.30213C93.734 5.30213 93.6036 5.43038 93.6036 5.68688H92.5048C92.5048 5.34561 92.6494 5.06846 92.9385 4.85543C93.2297 4.6424 93.6004 4.53589 94.0503 4.53589C94.5003 4.53589 94.8557 4.64566 95.1165 4.86521C95.3774 5.08476 95.5111 5.38582 95.5176 5.7684V7.33022C95.5219 7.65411 95.5719 7.90191 95.6676 8.07364V8.12907H94.5688ZM93.8808 7.41174C94.0177 7.41174 94.1308 7.38239 94.2199 7.3237C94.3112 7.26501 94.3764 7.19871 94.4155 7.1248V6.56072H94.096C93.7134 6.56072 93.5221 6.73245 93.5221 7.07589C93.5221 7.17589 93.5558 7.2574 93.6232 7.32044C93.6906 7.3813 93.7764 7.41174 93.8808 7.41174Z" fill="black"/>
<path id="Vector_12" d="M97.1381 4.6011L97.174 5.0152C97.4174 4.69566 97.7533 4.53589 98.1815 4.53589C98.5489 4.53589 98.8228 4.64566 99.0032 4.86521C99.1858 5.08476 99.2803 5.41517 99.2868 5.85643V8.12907H98.1848V5.90208C98.1848 5.72383 98.1489 5.59341 98.0772 5.51081C98.0054 5.42603 97.875 5.38365 97.6859 5.38365C97.4707 5.38365 97.3109 5.46842 97.2066 5.63797V8.12907H96.1078V4.6011H97.1381Z" fill="black"/>
<path id="Vector_13" d="M99.7596 6.33906C99.7596 5.78041 99.8803 5.34023 100.122 5.01852C100.363 4.69681 100.7 4.53595 101.132 4.53595C101.448 4.53595 101.713 4.65985 101.928 4.90766V3.12085H103.03V8.12913H102.042L101.987 7.7509C101.761 8.04652 101.474 8.19434 101.126 8.19434C100.706 8.19434 100.374 8.03348 100.128 7.71177C99.8824 7.39006 99.7596 6.93249 99.7596 6.33906ZM100.858 6.40753C100.858 7.03357 101.041 7.34658 101.406 7.34658C101.65 7.34658 101.824 7.24442 101.928 7.04009V5.69672C101.828 5.48805 101.656 5.38371 101.413 5.38371C101.074 5.38371 100.89 5.6576 100.862 6.20538L100.858 6.40753Z" fill="black"/>
<path id="Vector_14" d="M105.642 8.12907C105.603 8.05733 105.568 7.95191 105.537 7.81279C105.335 8.06712 105.053 8.19428 104.69 8.19428C104.357 8.19428 104.074 8.09429 103.842 7.8943C103.609 7.69215 103.493 7.43891 103.493 7.13459C103.493 6.75201 103.634 6.4629 103.917 6.26727C104.199 6.07163 104.61 5.97381 105.149 5.97381H105.488V5.78796C105.488 5.46407 105.348 5.30213 105.068 5.30213C104.807 5.30213 104.677 5.43038 104.677 5.68688H103.578C103.578 5.34561 103.722 5.06846 104.011 4.85543C104.303 4.6424 104.673 4.53589 105.123 4.53589C105.573 4.53589 105.929 4.64566 106.19 4.86521C106.45 5.08476 106.584 5.38582 106.591 5.7684V7.33022C106.595 7.65411 106.645 7.90191 106.741 8.07364V8.12907H105.642ZM104.954 7.41174C105.091 7.41174 105.204 7.38239 105.293 7.3237C105.384 7.26501 105.449 7.19871 105.488 7.1248V6.56072H105.169C104.786 6.56072 104.595 6.73245 104.595 7.07589C104.595 7.17589 104.629 7.2574 104.696 7.32044C104.764 7.3813 104.849 7.41174 104.954 7.41174Z" fill="black"/>
<path id="Vector_15" d="M109.336 5.59558L108.974 5.5695C108.628 5.5695 108.407 5.67819 108.309 5.89556V8.12907H107.21V4.6011H108.24L108.276 5.05433C108.461 4.7087 108.719 4.53589 109.049 4.53589C109.166 4.53589 109.269 4.54893 109.356 4.57502L109.336 5.59558Z" fill="black"/>
<path id="Vector_16" d="M59.4815 14.5183V16.1291H58.337V11.3816H60.2314C60.5945 11.3816 60.9151 11.449 61.1933 11.5838C61.4737 11.7164 61.69 11.9066 61.8422 12.1544C61.9965 12.4 62.0737 12.6794 62.0737 12.9924C62.0737 13.4554 61.9074 13.826 61.5748 14.1042C61.2444 14.3803 60.7901 14.5183 60.2119 14.5183H59.4815ZM59.4815 13.6347H60.2314C60.4532 13.6347 60.6216 13.5793 60.7368 13.4684C60.8542 13.3576 60.9129 13.2011 60.9129 12.9989C60.9129 12.7772 60.8531 12.6 60.7336 12.4674C60.614 12.3348 60.451 12.2674 60.2445 12.2653H59.4815V13.6347Z" fill="black"/>
<path id="Vector_17" d="M64.2974 16.1943C63.7561 16.1943 63.3181 16.0334 62.9834 15.7117C62.6486 15.3878 62.4813 14.9672 62.4813 14.4499V14.3586C62.4813 13.9977 62.5476 13.6793 62.6801 13.4032C62.8149 13.1271 63.0106 12.9141 63.2671 12.7641C63.5236 12.612 63.8279 12.5359 64.18 12.5359C64.6756 12.5359 65.0669 12.6902 65.3538 12.9989C65.6408 13.3054 65.7842 13.7336 65.7842 14.2836V14.7107H63.5996C63.6388 14.9085 63.7246 15.0639 63.8572 15.177C63.9898 15.29 64.1615 15.3465 64.3724 15.3465C64.7202 15.3465 64.9919 15.2248 65.1875 14.9813L65.6897 15.5748C65.5527 15.7639 65.3582 15.915 65.106 16.028C64.8561 16.1388 64.5865 16.1943 64.2974 16.1943ZM64.1735 13.3836C63.8518 13.3836 63.6605 13.5967 63.5996 14.0227H64.7082V13.9379C64.7126 13.7619 64.668 13.626 64.5746 13.5304C64.4811 13.4326 64.3474 13.3836 64.1735 13.3836Z" fill="black"/>
<path id="Vector_18" d="M67.2678 12.6011L67.3037 13.0152C67.5537 12.6957 67.8895 12.5359 68.3112 12.5359C68.7568 12.5359 69.0579 12.7131 69.2144 13.0674C69.4535 12.7131 69.7991 12.5359 70.2512 12.5359C70.9664 12.5359 71.3338 12.9685 71.3533 13.8336V16.1291H70.2512V13.9021C70.2512 13.7217 70.2208 13.5902 70.16 13.5075C70.0991 13.4249 69.9882 13.3836 69.8274 13.3836C69.61 13.3836 69.4481 13.4804 69.3415 13.6738L69.3448 13.7195V16.1291H68.2427V13.9086C68.2427 13.7238 68.2134 13.5902 68.1547 13.5075C68.096 13.4249 67.984 13.3836 67.8188 13.3836C67.608 13.3836 67.4471 13.4804 67.3363 13.6738V16.1291H66.2375V12.6011H67.2678Z" fill="black"/>
<path id="Vector_19" d="M75.2563 14.3944C75.2563 14.9726 75.1367 15.4172 74.8976 15.728C74.6585 16.0389 74.3216 16.1943 73.8868 16.1943C73.5281 16.1943 73.239 16.0519 73.0195 15.7671L72.9738 16.1291H71.9891V11.1208H73.088V12.8848C73.2923 12.6522 73.5564 12.5359 73.8803 12.5359C74.3194 12.5359 74.6585 12.6935 74.8976 13.0087C75.1367 13.3239 75.2563 13.7673 75.2563 14.339V14.3944ZM74.1542 14.326C74.1542 13.9869 74.1085 13.7456 74.0172 13.6021C73.9281 13.4565 73.7901 13.3836 73.6031 13.3836C73.3553 13.3836 73.1836 13.4782 73.088 13.6673V15.0694C73.1814 15.2563 73.3553 15.3498 73.6097 15.3498C73.8683 15.3498 74.0325 15.2237 74.102 14.9716C74.1368 14.8477 74.1542 14.6325 74.1542 14.326Z" fill="black"/>
<path id="Vector_20" d="M77.7311 16.1291C77.6919 16.0573 77.6571 15.9519 77.6267 15.8128C77.4246 16.0671 77.142 16.1943 76.779 16.1943C76.4464 16.1943 76.1638 16.0943 75.9312 15.8943C75.6986 15.6921 75.5823 15.4389 75.5823 15.1346C75.5823 14.752 75.7236 14.4629 76.0062 14.2673C76.2888 14.0716 76.6996 13.9738 77.2387 13.9738H77.5778V13.788C77.5778 13.4641 77.4376 13.3021 77.1572 13.3021C76.8963 13.3021 76.7659 13.4304 76.7659 13.6869H75.6671C75.6671 13.3456 75.8116 13.0685 76.1008 12.8554C76.392 12.6424 76.7627 12.5359 77.2126 12.5359C77.6626 12.5359 78.018 12.6457 78.2788 12.8652C78.5397 13.0848 78.6734 13.3858 78.6799 13.7684V15.3302C78.6842 15.6541 78.7342 15.9019 78.8299 16.0736V16.1291H77.7311ZM77.0431 15.4117C77.18 15.4117 77.293 15.3824 77.3822 15.3237C77.4735 15.265 77.5387 15.1987 77.5778 15.1248V14.5607H77.2583C76.8757 14.5607 76.6844 14.7324 76.6844 15.0759C76.6844 15.1759 76.7181 15.2574 76.7855 15.3204C76.8529 15.3813 76.9387 15.4117 77.0431 15.4117Z" fill="black"/>
<path id="Vector_21" d="M80.6493 14.5901L81.2362 12.6011H82.4133L80.9753 16.7192L80.9134 16.8692C80.7091 17.3257 80.3482 17.5539 79.8309 17.5539C79.6874 17.5539 79.5363 17.5322 79.3777 17.4887V16.7029H79.5211C79.6755 16.7029 79.7928 16.6801 79.8733 16.6345C79.9559 16.591 80.0167 16.5116 80.0559 16.3964L80.1439 16.1617L78.9179 12.6011H80.0917L80.6493 14.5901Z" fill="black"/>
<path id="Vector_22" d="M84.637 16.1291C84.5979 16.0573 84.5631 15.9519 84.5327 15.8128C84.3305 16.0671 84.0479 16.1943 83.6849 16.1943C83.3523 16.1943 83.0697 16.0943 82.8371 15.8943C82.6046 15.6921 82.4883 15.4389 82.4883 15.1346C82.4883 14.752 82.6296 14.4629 82.9121 14.2673C83.1947 14.0716 83.6056 13.9738 84.1446 13.9738H84.4837V13.788C84.4837 13.4641 84.3435 13.3021 84.0631 13.3021C83.8023 13.3021 83.6719 13.4304 83.6719 13.6869H82.573C82.573 13.3456 82.7176 13.0685 83.0067 12.8554C83.298 12.6424 83.6686 12.5359 84.1186 12.5359C84.5685 12.5359 84.9239 12.6457 85.1848 12.8652C85.4456 13.0848 85.5793 13.3858 85.5858 13.7684V15.3302C85.5902 15.6541 85.6402 15.9019 85.7358 16.0736V16.1291H84.637ZM83.949 15.4117C84.086 15.4117 84.199 15.3824 84.2881 15.3237C84.3794 15.265 84.4446 15.1987 84.4837 15.1248V14.5607H84.1642C83.7816 14.5607 83.5903 14.7324 83.5903 15.0759C83.5903 15.1759 83.624 15.2574 83.6914 15.3204C83.7588 15.3813 83.8447 15.4117 83.949 15.4117Z" fill="black"/>
<path id="Vector_23" d="M88.3312 13.5956L87.9693 13.5695C87.6237 13.5695 87.402 13.6782 87.3042 13.8956V16.1291H86.2053V12.6011H87.2357L87.2716 13.0543C87.4563 12.7087 87.7139 12.5359 88.0443 12.5359C88.1617 12.5359 88.2639 12.5489 88.3508 12.575L88.3312 13.5956Z" fill="black"/>
<path id="Vector_24" d="M90.6169 16.1291C90.5778 16.0573 90.543 15.9519 90.5126 15.8128C90.3104 16.0671 90.0278 16.1943 89.6648 16.1943C89.3322 16.1943 89.0497 16.0943 88.8171 15.8943C88.5845 15.6921 88.4682 15.4389 88.4682 15.1346C88.4682 14.752 88.6095 14.4629 88.8921 14.2673C89.1747 14.0716 89.5855 13.9738 90.1246 13.9738H90.4637V13.788C90.4637 13.4641 90.3235 13.3021 90.0431 13.3021C89.7822 13.3021 89.6518 13.4304 89.6518 13.6869H88.553C88.553 13.3456 88.6975 13.0685 88.9866 12.8554C89.2779 12.6424 89.6485 12.5359 90.0985 12.5359C90.5484 12.5359 90.9039 12.6457 91.1647 12.8652C91.4255 13.0848 91.5592 13.3858 91.5658 13.7684V15.3302C91.5701 15.6541 91.6201 15.9019 91.7157 16.0736V16.1291H90.6169ZM89.9289 15.4117C90.0659 15.4117 90.1789 15.3824 90.268 15.3237C90.3593 15.265 90.4245 15.1987 90.4637 15.1248V14.5607H90.1441C89.7616 14.5607 89.5703 14.7324 89.5703 15.0759C89.5703 15.1759 89.604 15.2574 89.6713 15.3204C89.7387 15.3813 89.8246 15.4117 89.9289 15.4117Z" fill="black"/>
<path id="Vector_25" d="M93.1863 12.6011L93.2221 13.0152C93.4656 12.6957 93.8014 12.5359 94.2297 12.5359C94.597 12.5359 94.8709 12.6457 95.0513 12.8652C95.2339 13.0848 95.3285 13.4152 95.335 13.8564V16.1291H94.2329V13.9021C94.2329 13.7238 94.1971 13.5934 94.1253 13.5108C94.0536 13.426 93.9232 13.3836 93.7341 13.3836C93.5189 13.3836 93.3591 13.4684 93.2547 13.638V16.1291H92.1559V12.6011H93.1863Z" fill="black"/>
<path id="Vector_26" d="M101.625 16.1291H100.487L98.8043 13.175V16.1291H97.6598V11.3816H98.8043L100.483 14.3357V11.3816H101.625V16.1291Z" fill="black"/>
<path id="Vector_27" d="M104.285 16.1291C104.246 16.0573 104.211 15.9519 104.181 15.8128C103.979 16.0671 103.696 16.1943 103.333 16.1943C103.001 16.1943 102.718 16.0943 102.485 15.8943C102.253 15.6921 102.137 15.4389 102.137 15.1346C102.137 14.752 102.278 14.4629 102.56 14.2673C102.843 14.0716 103.254 13.9738 103.793 13.9738H104.132V13.788C104.132 13.4641 103.992 13.3021 103.711 13.3021C103.451 13.3021 103.32 13.4304 103.32 13.6869H102.221C102.221 13.3456 102.366 13.0685 102.655 12.8554C102.946 12.6424 103.317 12.5359 103.767 12.5359C104.217 12.5359 104.572 12.6457 104.833 12.8652C105.094 13.0848 105.228 13.3858 105.234 13.7684V15.3302C105.239 15.6541 105.289 15.9019 105.384 16.0736V16.1291H104.285ZM103.597 15.4117C103.734 15.4117 103.847 15.3824 103.936 15.3237C104.028 15.265 104.093 15.1987 104.132 15.1248V14.5607H103.813C103.43 14.5607 103.239 14.7324 103.239 15.0759C103.239 15.1759 103.272 15.2574 103.34 15.3204C103.407 15.3813 103.493 15.4117 103.597 15.4117Z" fill="black"/>
<path id="Vector_28" d="M107.693 15.1378C107.693 15.0444 107.644 14.9694 107.546 14.9129C107.448 14.8563 107.262 14.7977 106.988 14.7368C106.714 14.6759 106.488 14.5966 106.31 14.4988C106.132 14.3988 105.996 14.2781 105.903 14.1368C105.809 13.9956 105.762 13.8336 105.762 13.651C105.762 13.3271 105.896 13.0608 106.163 12.8522C106.431 12.6413 106.781 12.5359 107.213 12.5359C107.679 12.5359 108.052 12.6413 108.335 12.8522C108.618 13.063 108.759 13.3402 108.759 13.6836H107.657C107.657 13.401 107.508 13.2597 107.21 13.2597C107.095 13.2597 106.998 13.2923 106.92 13.3576C106.842 13.4206 106.803 13.4999 106.803 13.5956C106.803 13.6934 106.85 13.7727 106.946 13.8336C107.042 13.8945 107.194 13.9445 107.402 13.9836C107.613 14.0227 107.798 14.0695 107.957 14.1238C108.487 14.3064 108.752 14.6335 108.752 15.1052C108.752 15.427 108.609 15.6889 108.322 15.891C108.037 16.0932 107.668 16.1943 107.213 16.1943C106.911 16.1943 106.642 16.1399 106.405 16.0312C106.168 15.9226 105.983 15.7747 105.85 15.5878C105.718 15.4009 105.652 15.2041 105.652 14.9976H106.679C106.683 15.1607 106.737 15.2802 106.842 15.3563C106.946 15.4302 107.08 15.4672 107.243 15.4672C107.393 15.4672 107.505 15.4367 107.579 15.3759C107.655 15.315 107.693 15.2357 107.693 15.1378Z" fill="black"/>
<path id="Vector_29" d="M110.428 16.1291H109.326V12.6011H110.428V16.1291ZM109.261 11.6914C109.261 11.5349 109.318 11.4066 109.431 11.3066C109.544 11.2067 109.69 11.1567 109.871 11.1567C110.051 11.1567 110.198 11.2067 110.311 11.3066C110.424 11.4066 110.48 11.5349 110.48 11.6914C110.48 11.8479 110.424 11.9762 110.311 12.0761C110.198 12.1761 110.051 12.2261 109.871 12.2261C109.69 12.2261 109.544 12.1761 109.431 12.0761C109.318 11.9762 109.261 11.8479 109.261 11.6914Z" fill="black"/>
<path id="Vector_30" d="M110.97 14.3325C110.97 13.9803 111.038 13.6673 111.175 13.3934C111.312 13.1174 111.509 12.9054 111.765 12.7576C112.022 12.6098 112.323 12.5359 112.668 12.5359C113.197 12.5359 113.613 12.7 113.917 13.0282C114.221 13.3543 114.374 13.7988 114.374 14.3618V14.401C114.374 14.9509 114.22 15.3878 113.914 15.7117C113.61 16.0334 113.197 16.1943 112.675 16.1943C112.173 16.1943 111.769 16.0443 111.465 15.7443C111.161 15.4422 110.997 15.0335 110.973 14.5183L110.97 14.3325ZM112.068 14.401C112.068 14.727 112.119 14.9661 112.222 15.1183C112.324 15.2704 112.475 15.3465 112.675 15.3465C113.066 15.3465 113.266 15.0455 113.275 14.4433V14.3325C113.275 13.6999 113.073 13.3836 112.668 13.3836C112.301 13.3836 112.102 13.6564 112.072 14.2021L112.068 14.401Z" fill="black"/>
<path id="Vector_31" d="M115.867 12.6011L115.903 13.0152C116.146 12.6957 116.482 12.5359 116.91 12.5359C117.278 12.5359 117.552 12.6457 117.732 12.8652C117.915 13.0848 118.009 13.4152 118.016 13.8564V16.1291H116.914V13.9021C116.914 13.7238 116.878 13.5934 116.806 13.5108C116.734 13.426 116.604 13.3836 116.415 13.3836C116.2 13.3836 116.04 13.4684 115.935 13.638V16.1291H114.837V12.6011H115.867Z" fill="black"/>
<path id="Vector_32" d="M120.614 16.1291C120.575 16.0573 120.54 15.9519 120.51 15.8128C120.308 16.0671 120.025 16.1943 119.662 16.1943C119.33 16.1943 119.047 16.0943 118.815 15.8943C118.582 15.6921 118.466 15.4389 118.466 15.1346C118.466 14.752 118.607 14.4629 118.89 14.2673C119.172 14.0716 119.583 13.9738 120.122 13.9738H120.461V13.788C120.461 13.4641 120.321 13.3021 120.041 13.3021C119.78 13.3021 119.649 13.4304 119.649 13.6869H118.55C118.55 13.3456 118.695 13.0685 118.984 12.8554C119.275 12.6424 119.646 12.5359 120.096 12.5359C120.546 12.5359 120.901 12.6457 121.162 12.8652C121.423 13.0848 121.557 13.3858 121.563 13.7684V15.3302C121.568 15.6541 121.618 15.9019 121.713 16.0736V16.1291H120.614ZM119.926 15.4117C120.063 15.4117 120.176 15.3824 120.266 15.3237C120.357 15.265 120.422 15.1987 120.461 15.1248V14.5607H120.142C119.759 14.5607 119.568 14.7324 119.568 15.0759C119.568 15.1759 119.601 15.2574 119.669 15.3204C119.736 15.3813 119.822 15.4117 119.926 15.4117Z" fill="black"/>
<path id="Vector_33" d="M123.334 16.1291H122.232V11.1208H123.334V16.1291Z" fill="black"/>
</g>
</mask>
<g mask="url(#mask0_22_951)">
<path id="Vector_34" d="M62.3639 5.85315C62.3639 6.29225 62.2911 6.67591 62.1454 7.00414C61.9998 7.3302 61.7987 7.59214 61.5422 7.78994L62.3084 8.39642L61.6009 8.99636L60.5803 8.17469C60.4847 8.18774 60.389 8.19426 60.2934 8.19426C59.8891 8.19426 59.5304 8.10079 59.2174 7.91385C58.9044 7.72691 58.6598 7.45954 58.4838 7.11174C58.3099 6.76394 58.2197 6.36398 58.2131 5.91184V5.66078C58.2131 5.19342 58.2979 4.78259 58.4675 4.42827C58.6392 4.07395 58.8826 3.80006 59.1978 3.6066C59.5152 3.41314 59.8782 3.31641 60.2869 3.31641C60.689 3.31641 61.0477 3.41205 61.3629 3.60334C61.6781 3.79463 61.9226 4.06743 62.0965 4.42175C62.2726 4.77389 62.3617 5.17821 62.3639 5.63469V5.85315ZM61.1998 5.65426C61.1998 5.18256 61.1205 4.82498 60.9618 4.58152C60.8053 4.33589 60.5803 4.21307 60.2869 4.21307C59.9847 4.21307 59.7576 4.33371 59.6054 4.575C59.4532 4.81628 59.3761 5.16951 59.3739 5.63469V5.85315C59.3739 6.3205 59.4511 6.67917 59.6054 6.92915C59.7597 7.17695 59.9891 7.30086 60.2934 7.30086C60.5847 7.30086 60.8075 7.17804 60.9618 6.93241C61.1183 6.68678 61.1977 6.33355 61.1998 5.87272V5.65426Z" fill="white"/>
<path id="Vector_35" d="M64.7115 6.45307H64.092V8.12902H62.9475V3.38159H64.8158C65.3788 3.38159 65.819 3.50658 66.1364 3.75656C66.4537 4.00654 66.6124 4.35977 66.6124 4.81625C66.6124 5.14666 66.545 5.42055 66.4103 5.63792C66.2777 5.8553 66.069 6.03137 65.7842 6.16614L66.7755 8.08011V8.12902H65.5495L64.7115 6.45307ZM64.092 5.56945H64.8158C65.0332 5.56945 65.1962 5.51293 65.3049 5.3999C65.4158 5.28469 65.4712 5.12492 65.4712 4.92059C65.4712 4.71626 65.4158 4.55649 65.3049 4.44128C65.1941 4.3239 65.031 4.26521 64.8158 4.26521H64.092V5.56945Z" fill="white"/>
<path id="Vector_36" d="M72.8076 6.52165C72.7923 6.85206 72.7032 7.14443 72.5402 7.39875C72.3772 7.65091 72.1478 7.84654 71.8522 7.98566C71.5587 8.12478 71.2229 8.19434 70.8447 8.19434C70.2208 8.19434 69.7296 7.99109 69.3709 7.58461C69.0122 7.17812 68.8329 6.60426 68.8329 5.86301V5.62825C68.8329 5.16307 68.9133 4.75659 69.0742 4.40879C69.2372 4.05882 69.4709 3.78928 69.7752 3.60016C70.0795 3.40887 70.4317 3.31323 70.8316 3.31323C71.4077 3.31323 71.8707 3.46539 72.2206 3.76971C72.5706 4.07186 72.7695 4.48922 72.8173 5.02178H71.6761C71.6674 4.73267 71.5946 4.52508 71.4577 4.39901C71.3207 4.27293 71.112 4.20989 70.8316 4.20989C70.5469 4.20989 70.3382 4.31641 70.2056 4.52943C70.073 4.74246 70.0034 5.08264 69.9969 5.55V5.88584C69.9969 6.39232 70.06 6.75424 70.186 6.97162C70.3143 7.18899 70.5338 7.29767 70.8447 7.29767C71.1077 7.29767 71.3088 7.23572 71.4479 7.11182C71.587 6.98792 71.6609 6.7912 71.6696 6.52165H72.8076Z" fill="white"/>
<path id="Vector_37" d="M73.1597 6.33248C73.1597 5.98033 73.2282 5.66732 73.3651 5.39343C73.5021 5.11736 73.6988 4.90543 73.9553 4.75761C74.2118 4.6098 74.5128 4.53589 74.8585 4.53589C75.3867 4.53589 75.803 4.70001 76.1073 5.02824C76.4116 5.3543 76.5638 5.79883 76.5638 6.36182V6.40095C76.5638 6.95091 76.4105 7.38782 76.104 7.71171C75.7997 8.03342 75.3867 8.19428 74.865 8.19428C74.3629 8.19428 73.9596 8.04429 73.6553 7.74432C73.351 7.44217 73.1869 7.03351 73.163 6.51833L73.1597 6.33248ZM74.2585 6.40095C74.2585 6.72701 74.3096 6.96612 74.4118 7.11828C74.5139 7.27044 74.665 7.34652 74.865 7.34652C75.2563 7.34652 75.4562 7.04546 75.4649 6.44334V6.33248C75.4649 5.69992 75.2628 5.38365 74.8585 5.38365C74.4911 5.38365 74.2922 5.65645 74.2618 6.20206L74.2585 6.40095Z" fill="white"/>
<path id="Vector_38" d="M76.9094 6.33906C76.9094 5.78041 77.03 5.34023 77.2713 5.01852C77.5126 4.69681 77.8495 4.53595 78.2821 4.53595C78.5973 4.53595 78.8625 4.65985 79.0777 4.90766V3.12085H80.1798V8.12913H79.1918L79.1364 7.7509C78.9103 8.04652 78.6234 8.19434 78.2756 8.19434C77.856 8.19434 77.5235 8.03348 77.2778 7.71177C77.0322 7.39006 76.9094 6.93249 76.9094 6.33906ZM78.0082 6.40753C78.0082 7.03357 78.1908 7.34658 78.556 7.34658C78.7994 7.34658 78.9733 7.24442 79.0777 7.04009V5.69672C78.9777 5.48805 78.806 5.38371 78.5625 5.38371C78.2234 5.38371 78.0397 5.6576 78.0115 6.20538L78.0082 6.40753Z" fill="white"/>
<path id="Vector_39" d="M82.5111 8.19428C81.9698 8.19428 81.5318 8.03342 81.1971 7.71171C80.8623 7.38782 80.6949 6.96721 80.6949 6.44986V6.35856C80.6949 5.99772 80.7612 5.67927 80.8938 5.40321C81.0286 5.12715 81.2242 4.91412 81.4807 4.76413C81.7372 4.61197 82.0416 4.53589 82.3937 4.53589C82.8893 4.53589 83.2806 4.69023 83.5675 4.9989C83.8544 5.30539 83.9979 5.73362 83.9979 6.28357V6.71071H81.8133C81.8524 6.90852 81.9383 7.06394 82.0709 7.17697C82.2035 7.29001 82.3752 7.34652 82.5861 7.34652C82.9339 7.34652 83.2056 7.2248 83.4012 6.98134L83.9034 7.57477C83.7664 7.76388 83.5719 7.91495 83.3197 8.02799C83.0697 8.13885 82.8002 8.19428 82.5111 8.19428ZM82.3872 5.38365C82.0655 5.38365 81.8742 5.59667 81.8133 6.02272H82.9219V5.93795C82.9263 5.76188 82.8817 5.62602 82.7882 5.53037C82.6948 5.43256 82.5611 5.38365 82.3872 5.38365Z" fill="white"/>
<path id="Vector_40" d="M88.6051 6.8672C88.6051 6.69982 88.5454 6.5694 88.4258 6.47593C88.3084 6.38246 88.1008 6.28572 87.803 6.18573C87.5052 6.08574 87.2618 5.98901 87.0727 5.89554C86.4575 5.59339 86.1499 5.17821 86.1499 4.64999C86.1499 4.38697 86.226 4.15547 86.3781 3.95549C86.5325 3.75333 86.7499 3.59682 87.0303 3.48596C87.3107 3.37293 87.6259 3.31641 87.9758 3.31641C88.3171 3.31641 88.6225 3.37727 88.8921 3.499C89.1638 3.62073 89.3746 3.79463 89.5246 4.0207C89.6746 4.24459 89.7496 4.50109 89.7496 4.7902H88.6084C88.6084 4.59674 88.5486 4.44675 88.4291 4.34024C88.3117 4.23372 88.1519 4.18047 87.9498 4.18047C87.7454 4.18047 87.5835 4.22612 87.4639 4.31741C87.3465 4.40653 87.2879 4.52066 87.2879 4.65977C87.2879 4.7815 87.3531 4.89236 87.4835 4.99235C87.6139 5.09017 87.8432 5.19234 88.1715 5.29885C88.4997 5.40319 88.7693 5.51622 88.9801 5.63795C89.4931 5.93358 89.7496 6.34115 89.7496 6.86068C89.7496 7.27586 89.5931 7.60192 89.2801 7.83885C88.9671 8.07579 88.5378 8.19426 87.9921 8.19426C87.6074 8.19426 87.2585 8.12579 86.9455 7.98884C86.6346 7.84972 86.3999 7.66061 86.2412 7.4215C86.0847 7.18021 86.0064 6.90306 86.0064 6.59005H87.1542C87.1542 6.84437 87.2194 7.0324 87.3498 7.15413C87.4824 7.27368 87.6965 7.33346 87.9921 7.33346C88.1813 7.33346 88.3302 7.29325 88.4388 7.21282C88.5497 7.13022 88.6051 7.01501 88.6051 6.8672Z" fill="white"/>
<path id="Vector_41" d="M91.5658 3.72412V4.60122H92.1461V5.3642H91.5658V6.9782C91.5658 7.11079 91.5897 7.20318 91.6375 7.25535C91.6853 7.30752 91.7799 7.3336 91.9212 7.3336C92.0298 7.3336 92.1211 7.32708 92.195 7.31404V8.09984C91.9972 8.16288 91.7907 8.1944 91.5755 8.1944C91.1973 8.1944 90.918 8.10528 90.7376 7.92703C90.5571 7.74878 90.4669 7.47815 90.4669 7.11514V5.3642H90.017V4.60122H90.4669V3.72412H91.5658Z" fill="white"/>
<path id="Vector_42" d="M94.5688 8.12907C94.5296 8.05733 94.4949 7.95191 94.4644 7.81279C94.2623 8.06712 93.9797 8.19428 93.6167 8.19428C93.2841 8.19428 93.0015 8.09429 92.7689 7.8943C92.5363 7.69215 92.42 7.43891 92.42 7.13459C92.42 6.75201 92.5613 6.4629 92.8439 6.26727C93.1265 6.07163 93.5373 5.97381 94.0764 5.97381H94.4155V5.78796C94.4155 5.46407 94.2753 5.30213 93.9949 5.30213C93.734 5.30213 93.6036 5.43038 93.6036 5.68688H92.5048C92.5048 5.34561 92.6494 5.06846 92.9385 4.85543C93.2297 4.6424 93.6004 4.53589 94.0503 4.53589C94.5003 4.53589 94.8557 4.64566 95.1165 4.86521C95.3774 5.08476 95.5111 5.38582 95.5176 5.7684V7.33022C95.5219 7.65411 95.5719 7.90191 95.6676 8.07364V8.12907H94.5688ZM93.8808 7.41174C94.0177 7.41174 94.1308 7.38239 94.2199 7.3237C94.3112 7.26501 94.3764 7.19871 94.4155 7.1248V6.56072H94.096C93.7134 6.56072 93.5221 6.73245 93.5221 7.07589C93.5221 7.17589 93.5558 7.2574 93.6232 7.32044C93.6906 7.3813 93.7764 7.41174 93.8808 7.41174Z" fill="white"/>
<path id="Vector_43" d="M97.1381 4.6011L97.174 5.0152C97.4174 4.69566 97.7533 4.53589 98.1815 4.53589C98.5489 4.53589 98.8228 4.64566 99.0032 4.86521C99.1858 5.08476 99.2803 5.41517 99.2868 5.85643V8.12907H98.1848V5.90208C98.1848 5.72383 98.1489 5.59341 98.0772 5.51081C98.0054 5.42603 97.875 5.38365 97.6859 5.38365C97.4707 5.38365 97.3109 5.46842 97.2066 5.63797V8.12907H96.1078V4.6011H97.1381Z" fill="white"/>
<path id="Vector_44" d="M99.7596 6.33906C99.7596 5.78041 99.8803 5.34023 100.122 5.01852C100.363 4.69681 100.7 4.53595 101.132 4.53595C101.448 4.53595 101.713 4.65985 101.928 4.90766V3.12085H103.03V8.12913H102.042L101.987 7.7509C101.761 8.04652 101.474 8.19434 101.126 8.19434C100.706 8.19434 100.374 8.03348 100.128 7.71177C99.8824 7.39006 99.7596 6.93249 99.7596 6.33906ZM100.858 6.40753C100.858 7.03357 101.041 7.34658 101.406 7.34658C101.65 7.34658 101.824 7.24442 101.928 7.04009V5.69672C101.828 5.48805 101.656 5.38371 101.413 5.38371C101.074 5.38371 100.89 5.6576 100.862 6.20538L100.858 6.40753Z" fill="white"/>
<path id="Vector_45" d="M105.642 8.12907C105.603 8.05733 105.568 7.95191 105.537 7.81279C105.335 8.06712 105.053 8.19428 104.69 8.19428C104.357 8.19428 104.074 8.09429 103.842 7.8943C103.609 7.69215 103.493 7.43891 103.493 7.13459C103.493 6.75201 103.634 6.4629 103.917 6.26727C104.199 6.07163 104.61 5.97381 105.149 5.97381H105.488V5.78796C105.488 5.46407 105.348 5.30213 105.068 5.30213C104.807 5.30213 104.677 5.43038 104.677 5.68688H103.578C103.578 5.34561 103.722 5.06846 104.011 4.85543C104.303 4.6424 104.673 4.53589 105.123 4.53589C105.573 4.53589 105.929 4.64566 106.19 4.86521C106.45 5.08476 106.584 5.38582 106.591 5.7684V7.33022C106.595 7.65411 106.645 7.90191 106.741 8.07364V8.12907H105.642ZM104.954 7.41174C105.091 7.41174 105.204 7.38239 105.293 7.3237C105.384 7.26501 105.449 7.19871 105.488 7.1248V6.56072H105.169C104.786 6.56072 104.595 6.73245 104.595 7.07589C104.595 7.17589 104.629 7.2574 104.696 7.32044C104.764 7.3813 104.849 7.41174 104.954 7.41174Z" fill="white"/>
<path id="Vector_46" d="M109.336 5.59558L108.974 5.5695C108.628 5.5695 108.407 5.67819 108.309 5.89556V8.12907H107.21V4.6011H108.24L108.276 5.05433C108.461 4.7087 108.719 4.53589 109.049 4.53589C109.166 4.53589 109.269 4.54893 109.356 4.57502L109.336 5.59558Z" fill="white"/>
<path id="Vector_47" d="M59.4815 14.5183V16.1291H58.337V11.3816H60.2314C60.5945 11.3816 60.9151 11.449 61.1933 11.5838C61.4737 11.7164 61.69 11.9066 61.8422 12.1544C61.9965 12.4 62.0737 12.6794 62.0737 12.9924C62.0737 13.4554 61.9074 13.826 61.5748 14.1042C61.2444 14.3803 60.7901 14.5183 60.2119 14.5183H59.4815ZM59.4815 13.6347H60.2314C60.4532 13.6347 60.6216 13.5793 60.7368 13.4684C60.8542 13.3576 60.9129 13.2011 60.9129 12.9989C60.9129 12.7772 60.8531 12.6 60.7336 12.4674C60.614 12.3348 60.451 12.2674 60.2445 12.2653H59.4815V13.6347Z" fill="white"/>
<path id="Vector_48" d="M64.2974 16.1943C63.7561 16.1943 63.3181 16.0334 62.9834 15.7117C62.6486 15.3878 62.4813 14.9672 62.4813 14.4499V14.3586C62.4813 13.9977 62.5476 13.6793 62.6801 13.4032C62.8149 13.1271 63.0106 12.9141 63.2671 12.7641C63.5236 12.612 63.8279 12.5359 64.18 12.5359C64.6756 12.5359 65.0669 12.6902 65.3538 12.9989C65.6408 13.3054 65.7842 13.7336 65.7842 14.2836V14.7107H63.5996C63.6388 14.9085 63.7246 15.0639 63.8572 15.177C63.9898 15.29 64.1615 15.3465 64.3724 15.3465C64.7202 15.3465 64.9919 15.2248 65.1875 14.9813L65.6897 15.5748C65.5527 15.7639 65.3582 15.915 65.106 16.028C64.8561 16.1388 64.5865 16.1943 64.2974 16.1943ZM64.1735 13.3836C63.8518 13.3836 63.6605 13.5967 63.5996 14.0227H64.7082V13.9379C64.7126 13.7619 64.668 13.626 64.5746 13.5304C64.4811 13.4326 64.3474 13.3836 64.1735 13.3836Z" fill="white"/>
<path id="Vector_49" d="M67.2678 12.6011L67.3037 13.0152C67.5537 12.6957 67.8895 12.5359 68.3112 12.5359C68.7568 12.5359 69.0579 12.7131 69.2144 13.0674C69.4535 12.7131 69.7991 12.5359 70.2512 12.5359C70.9664 12.5359 71.3338 12.9685 71.3533 13.8336V16.1291H70.2512V13.9021C70.2512 13.7217 70.2208 13.5902 70.16 13.5075C70.0991 13.4249 69.9882 13.3836 69.8274 13.3836C69.61 13.3836 69.4481 13.4804 69.3415 13.6738L69.3448 13.7195V16.1291H68.2427V13.9086C68.2427 13.7238 68.2134 13.5902 68.1547 13.5075C68.096 13.4249 67.984 13.3836 67.8188 13.3836C67.608 13.3836 67.4471 13.4804 67.3363 13.6738V16.1291H66.2375V12.6011H67.2678Z" fill="white"/>
<path id="Vector_50" d="M75.2563 14.3944C75.2563 14.9726 75.1367 15.4172 74.8976 15.728C74.6585 16.0389 74.3216 16.1943 73.8868 16.1943C73.5281 16.1943 73.239 16.0519 73.0195 15.7671L72.9738 16.1291H71.9891V11.1208H73.088V12.8848C73.2923 12.6522 73.5564 12.5359 73.8803 12.5359C74.3194 12.5359 74.6585 12.6935 74.8976 13.0087C75.1367 13.3239 75.2563 13.7673 75.2563 14.339V14.3944ZM74.1542 14.326C74.1542 13.9869 74.1085 13.7456 74.0172 13.6021C73.9281 13.4565 73.7901 13.3836 73.6031 13.3836C73.3553 13.3836 73.1836 13.4782 73.088 13.6673V15.0694C73.1814 15.2563 73.3553 15.3498 73.6097 15.3498C73.8683 15.3498 74.0325 15.2237 74.102 14.9716C74.1368 14.8477 74.1542 14.6325 74.1542 14.326Z" fill="white"/>
<path id="Vector_51" d="M77.7311 16.1291C77.6919 16.0573 77.6571 15.9519 77.6267 15.8128C77.4246 16.0671 77.142 16.1943 76.779 16.1943C76.4464 16.1943 76.1638 16.0943 75.9312 15.8943C75.6986 15.6921 75.5823 15.4389 75.5823 15.1346C75.5823 14.752 75.7236 14.4629 76.0062 14.2673C76.2888 14.0716 76.6996 13.9738 77.2387 13.9738H77.5778V13.788C77.5778 13.4641 77.4376 13.3021 77.1572 13.3021C76.8963 13.3021 76.7659 13.4304 76.7659 13.6869H75.6671C75.6671 13.3456 75.8116 13.0685 76.1008 12.8554C76.392 12.6424 76.7627 12.5359 77.2126 12.5359C77.6626 12.5359 78.018 12.6457 78.2788 12.8652C78.5397 13.0848 78.6734 13.3858 78.6799 13.7684V15.3302C78.6842 15.6541 78.7342 15.9019 78.8299 16.0736V16.1291H77.7311ZM77.0431 15.4117C77.18 15.4117 77.293 15.3824 77.3822 15.3237C77.4735 15.265 77.5387 15.1987 77.5778 15.1248V14.5607H77.2583C76.8757 14.5607 76.6844 14.7324 76.6844 15.0759C76.6844 15.1759 76.7181 15.2574 76.7855 15.3204C76.8529 15.3813 76.9387 15.4117 77.0431 15.4117Z" fill="white"/>
<path id="Vector_52" d="M80.6493 14.5901L81.2362 12.6011H82.4133L80.9753 16.7192L80.9134 16.8692C80.7091 17.3257 80.3482 17.5539 79.8309 17.5539C79.6874 17.5539 79.5363 17.5322 79.3777 17.4887V16.7029H79.5211C79.6755 16.7029 79.7928 16.6801 79.8733 16.6345C79.9559 16.591 80.0167 16.5116 80.0559 16.3964L80.1439 16.1617L78.9179 12.6011H80.0917L80.6493 14.5901Z" fill="white"/>
<path id="Vector_53" d="M84.637 16.1291C84.5979 16.0573 84.5631 15.9519 84.5327 15.8128C84.3305 16.0671 84.0479 16.1943 83.6849 16.1943C83.3523 16.1943 83.0697 16.0943 82.8371 15.8943C82.6046 15.6921 82.4883 15.4389 82.4883 15.1346C82.4883 14.752 82.6296 14.4629 82.9121 14.2673C83.1947 14.0716 83.6056 13.9738 84.1446 13.9738H84.4837V13.788C84.4837 13.4641 84.3435 13.3021 84.0631 13.3021C83.8023 13.3021 83.6719 13.4304 83.6719 13.6869H82.573C82.573 13.3456 82.7176 13.0685 83.0067 12.8554C83.298 12.6424 83.6686 12.5359 84.1186 12.5359C84.5685 12.5359 84.9239 12.6457 85.1848 12.8652C85.4456 13.0848 85.5793 13.3858 85.5858 13.7684V15.3302C85.5902 15.6541 85.6402 15.9019 85.7358 16.0736V16.1291H84.637ZM83.949 15.4117C84.086 15.4117 84.199 15.3824 84.2881 15.3237C84.3794 15.265 84.4446 15.1987 84.4837 15.1248V14.5607H84.1642C83.7816 14.5607 83.5903 14.7324 83.5903 15.0759C83.5903 15.1759 83.624 15.2574 83.6914 15.3204C83.7588 15.3813 83.8447 15.4117 83.949 15.4117Z" fill="white"/>
<path id="Vector_54" d="M88.3312 13.5956L87.9693 13.5695C87.6237 13.5695 87.402 13.6782 87.3042 13.8956V16.1291H86.2053V12.6011H87.2357L87.2716 13.0543C87.4563 12.7087 87.7139 12.5359 88.0443 12.5359C88.1617 12.5359 88.2639 12.5489 88.3508 12.575L88.3312 13.5956Z" fill="white"/>
<path id="Vector_55" d="M90.6169 16.1291C90.5778 16.0573 90.543 15.9519 90.5126 15.8128C90.3104 16.0671 90.0278 16.1943 89.6648 16.1943C89.3322 16.1943 89.0497 16.0943 88.8171 15.8943C88.5845 15.6921 88.4682 15.4389 88.4682 15.1346C88.4682 14.752 88.6095 14.4629 88.8921 14.2673C89.1747 14.0716 89.5855 13.9738 90.1246 13.9738H90.4637V13.788C90.4637 13.4641 90.3235 13.3021 90.0431 13.3021C89.7822 13.3021 89.6518 13.4304 89.6518 13.6869H88.553C88.553 13.3456 88.6975 13.0685 88.9866 12.8554C89.2779 12.6424 89.6485 12.5359 90.0985 12.5359C90.5484 12.5359 90.9039 12.6457 91.1647 12.8652C91.4255 13.0848 91.5592 13.3858 91.5658 13.7684V15.3302C91.5701 15.6541 91.6201 15.9019 91.7157 16.0736V16.1291H90.6169ZM89.9289 15.4117C90.0659 15.4117 90.1789 15.3824 90.268 15.3237C90.3593 15.265 90.4245 15.1987 90.4637 15.1248V14.5607H90.1441C89.7616 14.5607 89.5703 14.7324 89.5703 15.0759C89.5703 15.1759 89.604 15.2574 89.6713 15.3204C89.7387 15.3813 89.8246 15.4117 89.9289 15.4117Z" fill="white"/>
<path id="Vector_56" d="M93.1863 12.6011L93.2221 13.0152C93.4656 12.6957 93.8014 12.5359 94.2297 12.5359C94.597 12.5359 94.8709 12.6457 95.0513 12.8652C95.2339 13.0848 95.3285 13.4152 95.335 13.8564V16.1291H94.2329V13.9021C94.2329 13.7238 94.1971 13.5934 94.1253 13.5108C94.0536 13.426 93.9232 13.3836 93.7341 13.3836C93.5189 13.3836 93.3591 13.4684 93.2547 13.638V16.1291H92.1559V12.6011H93.1863Z" fill="white"/>
<path id="Vector_57" d="M101.625 16.1291H100.487L98.8043 13.175V16.1291H97.6598V11.3816H98.8043L100.483 14.3357V11.3816H101.625V16.1291Z" fill="white"/>
<path id="Vector_58" d="M104.285 16.1291C104.246 16.0573 104.211 15.9519 104.181 15.8128C103.979 16.0671 103.696 16.1943 103.333 16.1943C103.001 16.1943 102.718 16.0943 102.485 15.8943C102.253 15.6921 102.137 15.4389 102.137 15.1346C102.137 14.752 102.278 14.4629 102.56 14.2673C102.843 14.0716 103.254 13.9738 103.793 13.9738H104.132V13.788C104.132 13.4641 103.992 13.3021 103.711 13.3021C103.451 13.3021 103.32 13.4304 103.32 13.6869H102.221C102.221 13.3456 102.366 13.0685 102.655 12.8554C102.946 12.6424 103.317 12.5359 103.767 12.5359C104.217 12.5359 104.572 12.6457 104.833 12.8652C105.094 13.0848 105.228 13.3858 105.234 13.7684V15.3302C105.239 15.6541 105.289 15.9019 105.384 16.0736V16.1291H104.285ZM103.597 15.4117C103.734 15.4117 103.847 15.3824 103.936 15.3237C104.028 15.265 104.093 15.1987 104.132 15.1248V14.5607H103.813C103.43 14.5607 103.239 14.7324 103.239 15.0759C103.239 15.1759 103.272 15.2574 103.34 15.3204C103.407 15.3813 103.493 15.4117 103.597 15.4117Z" fill="white"/>
<path id="Vector_59" d="M107.693 15.1378C107.693 15.0444 107.644 14.9694 107.546 14.9129C107.448 14.8563 107.262 14.7977 106.988 14.7368C106.714 14.6759 106.488 14.5966 106.31 14.4988C106.132 14.3988 105.996 14.2781 105.903 14.1368C105.809 13.9956 105.762 13.8336 105.762 13.651C105.762 13.3271 105.896 13.0608 106.163 12.8522C106.431 12.6413 106.781 12.5359 107.213 12.5359C107.679 12.5359 108.052 12.6413 108.335 12.8522C108.618 13.063 108.759 13.3402 108.759 13.6836H107.657C107.657 13.401 107.508 13.2597 107.21 13.2597C107.095 13.2597 106.998 13.2923 106.92 13.3576C106.842 13.4206 106.803 13.4999 106.803 13.5956C106.803 13.6934 106.85 13.7727 106.946 13.8336C107.042 13.8945 107.194 13.9445 107.402 13.9836C107.613 14.0227 107.798 14.0695 107.957 14.1238C108.487 14.3064 108.752 14.6335 108.752 15.1052C108.752 15.427 108.609 15.6889 108.322 15.891C108.037 16.0932 107.668 16.1943 107.213 16.1943C106.911 16.1943 106.642 16.1399 106.405 16.0312C106.168 15.9226 105.983 15.7747 105.85 15.5878C105.718 15.4009 105.652 15.2041 105.652 14.9976H106.679C106.683 15.1607 106.737 15.2802 106.842 15.3563C106.946 15.4302 107.08 15.4672 107.243 15.4672C107.393 15.4672 107.505 15.4367 107.579 15.3759C107.655 15.315 107.693 15.2357 107.693 15.1378Z" fill="white"/>
<path id="Vector_60" d="M110.428 16.1291H109.326V12.6011H110.428V16.1291ZM109.261 11.6914C109.261 11.5349 109.318 11.4066 109.431 11.3066C109.544 11.2067 109.69 11.1567 109.871 11.1567C110.051 11.1567 110.198 11.2067 110.311 11.3066C110.424 11.4066 110.48 11.5349 110.48 11.6914C110.48 11.8479 110.424 11.9762 110.311 12.0761C110.198 12.1761 110.051 12.2261 109.871 12.2261C109.69 12.2261 109.544 12.1761 109.431 12.0761C109.318 11.9762 109.261 11.8479 109.261 11.6914Z" fill="white"/>
<path id="Vector_61" d="M110.97 14.3325C110.97 13.9803 111.038 13.6673 111.175 13.3934C111.312 13.1174 111.509 12.9054 111.765 12.7576C112.022 12.6098 112.323 12.5359 112.668 12.5359C113.197 12.5359 113.613 12.7 113.917 13.0282C114.221 13.3543 114.374 13.7988 114.374 14.3618V14.401C114.374 14.9509 114.22 15.3878 113.914 15.7117C113.61 16.0334 113.197 16.1943 112.675 16.1943C112.173 16.1943 111.769 16.0443 111.465 15.7443C111.161 15.4422 110.997 15.0335 110.973 14.5183L110.97 14.3325ZM112.068 14.401C112.068 14.727 112.119 14.9661 112.222 15.1183C112.324 15.2704 112.475 15.3465 112.675 15.3465C113.066 15.3465 113.266 15.0455 113.275 14.4433V14.3325C113.275 13.6999 113.073 13.3836 112.668 13.3836C112.301 13.3836 112.102 13.6564 112.072 14.2021L112.068 14.401Z" fill="white"/>
<path id="Vector_62" d="M115.867 12.6011L115.903 13.0152C116.146 12.6957 116.482 12.5359 116.91 12.5359C117.278 12.5359 117.552 12.6457 117.732 12.8652C117.915 13.0848 118.009 13.4152 118.016 13.8564V16.1291H116.914V13.9021C116.914 13.7238 116.878 13.5934 116.806 13.5108C116.734 13.426 116.604 13.3836 116.415 13.3836C116.2 13.3836 116.04 13.4684 115.935 13.638V16.1291H114.837V12.6011H115.867Z" fill="white"/>
<path id="Vector_63" d="M120.614 16.1291C120.575 16.0573 120.54 15.9519 120.51 15.8128C120.308 16.0671 120.025 16.1943 119.662 16.1943C119.33 16.1943 119.047 16.0943 118.815 15.8943C118.582 15.6921 118.466 15.4389 118.466 15.1346C118.466 14.752 118.607 14.4629 118.89 14.2673C119.172 14.0716 119.583 13.9738 120.122 13.9738H120.461V13.788C120.461 13.4641 120.321 13.3021 120.041 13.3021C119.78 13.3021 119.649 13.4304 119.649 13.6869H118.55C118.55 13.3456 118.695 13.0685 118.984 12.8554C119.275 12.6424 119.646 12.5359 120.096 12.5359C120.546 12.5359 120.901 12.6457 121.162 12.8652C121.423 13.0848 121.557 13.3858 121.563 13.7684V15.3302C121.568 15.6541 121.618 15.9019 121.713 16.0736V16.1291H120.614ZM119.926 15.4117C120.063 15.4117 120.176 15.3824 120.266 15.3237C120.357 15.265 120.422 15.1987 120.461 15.1248V14.5607H120.142C119.759 14.5607 119.568 14.7324 119.568 15.0759C119.568 15.1759 119.601 15.2574 119.669 15.3204C119.736 15.3813 119.822 15.4117 119.926 15.4117Z" fill="white"/>
<path id="Vector_64" d="M123.334 16.1291H122.232V11.1208H123.334V16.1291Z" fill="white"/>
<path id="Vector_65" d="M62.3639 5.85315C62.3639 6.29225 62.2911 6.67591 62.1454 7.00414C61.9998 7.3302 61.7987 7.59214 61.5422 7.78994L62.3084 8.39642L61.6009 8.99636L60.5803 8.17469C60.4847 8.18774 60.389 8.19426 60.2934 8.19426C59.8891 8.19426 59.5304 8.10079 59.2174 7.91385C58.9044 7.72691 58.6598 7.45954 58.4838 7.11174C58.3099 6.76394 58.2197 6.36398 58.2131 5.91184V5.66078C58.2131 5.19342 58.2979 4.78259 58.4675 4.42827C58.6392 4.07395 58.8826 3.80006 59.1978 3.6066C59.5152 3.41314 59.8782 3.31641 60.2869 3.31641C60.689 3.31641 61.0477 3.41205 61.3629 3.60334C61.6781 3.79463 61.9226 4.06743 62.0965 4.42175C62.2726 4.77389 62.3617 5.17821 62.3639 5.63469V5.85315ZM61.1998 5.65426C61.1998 5.18256 61.1205 4.82498 60.9618 4.58152C60.8053 4.33589 60.5803 4.21307 60.2869 4.21307C59.9847 4.21307 59.7576 4.33371 59.6054 4.575C59.4532 4.81628 59.3761 5.16951 59.3739 5.63469V5.85315C59.3739 6.3205 59.4511 6.67917 59.6054 6.92915C59.7597 7.17695 59.9891 7.30086 60.2934 7.30086C60.5847 7.30086 60.8075 7.17804 60.9618 6.93241C61.1183 6.68678 61.1977 6.33355 61.1998 5.87272V5.65426Z" stroke="white" stroke-width="0.202354"/>
<path id="Vector_66" d="M64.7115 6.45307H64.092V8.12902H62.9475V3.38159H64.8158C65.3788 3.38159 65.819 3.50658 66.1364 3.75656C66.4537 4.00654 66.6124 4.35977 66.6124 4.81625C66.6124 5.14666 66.545 5.42055 66.4103 5.63792C66.2777 5.8553 66.069 6.03137 65.7842 6.16614L66.7755 8.08011V8.12902H65.5495L64.7115 6.45307ZM64.092 5.56945H64.8158C65.0332 5.56945 65.1962 5.51293 65.3049 5.3999C65.4158 5.28469 65.4712 5.12492 65.4712 4.92059C65.4712 4.71626 65.4158 4.55649 65.3049 4.44128C65.1941 4.3239 65.031 4.26521 64.8158 4.26521H64.092V5.56945Z" stroke="white" stroke-width="0.202354"/>
<path id="Vector_67" d="M72.8076 6.52165C72.7923 6.85206 72.7032 7.14443 72.5402 7.39875C72.3772 7.65091 72.1478 7.84654 71.8522 7.98566C71.5587 8.12478 71.2229 8.19434 70.8447 8.19434C70.2208 8.19434 69.7296 7.99109 69.3709 7.58461C69.0122 7.17812 68.8329 6.60426 68.8329 5.86301V5.62825C68.8329 5.16307 68.9133 4.75659 69.0742 4.40879C69.2372 4.05882 69.4709 3.78928 69.7752 3.60016C70.0795 3.40887 70.4317 3.31323 70.8316 3.31323C71.4077 3.31323 71.8707 3.46539 72.2206 3.76971C72.5706 4.07186 72.7695 4.48922 72.8173 5.02178H71.6761C71.6674 4.73267 71.5946 4.52508 71.4577 4.39901C71.3207 4.27293 71.112 4.20989 70.8316 4.20989C70.5469 4.20989 70.3382 4.31641 70.2056 4.52943C70.073 4.74246 70.0034 5.08264 69.9969 5.55V5.88584C69.9969 6.39232 70.06 6.75424 70.186 6.97162C70.3143 7.18899 70.5338 7.29767 70.8447 7.29767C71.1077 7.29767 71.3088 7.23572 71.4479 7.11182C71.587 6.98792 71.6609 6.7912 71.6696 6.52165H72.8076Z" stroke="white" stroke-width="0.202354"/>
<path id="Vector_68" d="M73.1597 6.33248C73.1597 5.98033 73.2282 5.66732 73.3651 5.39343C73.5021 5.11736 73.6988 4.90543 73.9553 4.75761C74.2118 4.6098 74.5128 4.53589 74.8585 4.53589C75.3867 4.53589 75.803 4.70001 76.1073 5.02824C76.4116 5.3543 76.5638 5.79883 76.5638 6.36182V6.40095C76.5638 6.95091 76.4105 7.38782 76.104 7.71171C75.7997 8.03342 75.3867 8.19428 74.865 8.19428C74.3629 8.19428 73.9596 8.04429 73.6553 7.74432C73.351 7.44217 73.1869 7.03351 73.163 6.51833L73.1597 6.33248ZM74.2585 6.40095C74.2585 6.72701 74.3096 6.96612 74.4118 7.11828C74.5139 7.27044 74.665 7.34652 74.865 7.34652C75.2563 7.34652 75.4562 7.04546 75.4649 6.44334V6.33248C75.4649 5.69992 75.2628 5.38365 74.8585 5.38365C74.4911 5.38365 74.2922 5.65645 74.2618 6.20206L74.2585 6.40095Z" stroke="white" stroke-width="0.202354"/>
<path id="Vector_69" d="M76.9094 6.33906C76.9094 5.78041 77.03 5.34023 77.2713 5.01852C77.5126 4.69681 77.8495 4.53595 78.2821 4.53595C78.5973 4.53595 78.8625 4.65985 79.0777 4.90766V3.12085H80.1798V8.12913H79.1918L79.1364 7.7509C78.9103 8.04652 78.6234 8.19434 78.2756 8.19434C77.856 8.19434 77.5235 8.03348 77.2778 7.71177C77.0322 7.39006 76.9094 6.93249 76.9094 6.33906ZM78.0082 6.40753C78.0082 7.03357 78.1908 7.34658 78.556 7.34658C78.7994 7.34658 78.9733 7.24442 79.0777 7.04009V5.69672C78.9777 5.48805 78.806 5.38371 78.5625 5.38371C78.2234 5.38371 78.0397 5.6576 78.0115 6.20538L78.0082 6.40753Z" stroke="white" stroke-width="0.202354"/>
<path id="Vector_70" d="M82.5111 8.19428C81.9698 8.19428 81.5318 8.03342 81.1971 7.71171C80.8623 7.38782 80.6949 6.96721 80.6949 6.44986V6.35856C80.6949 5.99772 80.7612 5.67927 80.8938 5.40321C81.0286 5.12715 81.2242 4.91412 81.4807 4.76413C81.7372 4.61197 82.0416 4.53589 82.3937 4.53589C82.8893 4.53589 83.2806 4.69023 83.5675 4.9989C83.8544 5.30539 83.9979 5.73362 83.9979 6.28357V6.71071H81.8133C81.8524 6.90852 81.9383 7.06394 82.0709 7.17697C82.2035 7.29001 82.3752 7.34652 82.5861 7.34652C82.9339 7.34652 83.2056 7.2248 83.4012 6.98134L83.9034 7.57477C83.7664 7.76388 83.5719 7.91495 83.3197 8.02799C83.0697 8.13885 82.8002 8.19428 82.5111 8.19428ZM82.3872 5.38365C82.0655 5.38365 81.8742 5.59667 81.8133 6.02272H82.9219V5.93795C82.9263 5.76188 82.8817 5.62602 82.7882 5.53037C82.6948 5.43256 82.5611 5.38365 82.3872 5.38365Z" stroke="white" stroke-width="0.202354"/>
<path id="Vector_71" d="M88.6051 6.8672C88.6051 6.69982 88.5454 6.5694 88.4258 6.47593C88.3084 6.38246 88.1008 6.28572 87.803 6.18573C87.5052 6.08574 87.2618 5.98901 87.0727 5.89554C86.4575 5.59339 86.1499 5.17821 86.1499 4.64999C86.1499 4.38697 86.226 4.15547 86.3781 3.95549C86.5325 3.75333 86.7499 3.59682 87.0303 3.48596C87.3107 3.37293 87.6259 3.31641 87.9758 3.31641C88.3171 3.31641 88.6225 3.37727 88.8921 3.499C89.1638 3.62073 89.3746 3.79463 89.5246 4.0207C89.6746 4.24459 89.7496 4.50109 89.7496 4.7902H88.6084C88.6084 4.59674 88.5486 4.44675 88.4291 4.34024C88.3117 4.23372 88.1519 4.18047 87.9498 4.18047C87.7454 4.18047 87.5835 4.22612 87.4639 4.31741C87.3465 4.40653 87.2879 4.52066 87.2879 4.65977C87.2879 4.7815 87.3531 4.89236 87.4835 4.99235C87.6139 5.09017 87.8432 5.19234 88.1715 5.29885C88.4997 5.40319 88.7693 5.51622 88.9801 5.63795C89.4931 5.93358 89.7496 6.34115 89.7496 6.86068C89.7496 7.27586 89.5931 7.60192 89.2801 7.83885C88.9671 8.07579 88.5378 8.19426 87.9921 8.19426C87.6074 8.19426 87.2585 8.12579 86.9455 7.98884C86.6346 7.84972 86.3999 7.66061 86.2412 7.4215C86.0847 7.18021 86.0064 6.90306 86.0064 6.59005H87.1542C87.1542 6.84437 87.2194 7.0324 87.3498 7.15413C87.4824 7.27368 87.6965 7.33346 87.9921 7.33346C88.1813 7.33346 88.3302 7.29325 88.4388 7.21282C88.5497 7.13022 88.6051 7.01501 88.6051 6.8672Z" stroke="white" stroke-width="0.202354"/>
<path id="Vector_72" d="M91.5658 3.72412V4.60122H92.1461V5.3642H91.5658V6.9782C91.5658 7.11079 91.5897 7.20318 91.6375 7.25535C91.6853 7.30752 91.7799 7.3336 91.9212 7.3336C92.0298 7.3336 92.1211 7.32708 92.195 7.31404V8.09984C91.9972 8.16288 91.7907 8.1944 91.5755 8.1944C91.1973 8.1944 90.918 8.10528 90.7376 7.92703C90.5571 7.74878 90.4669 7.47815 90.4669 7.11514V5.3642H90.017V4.60122H90.4669V3.72412H91.5658Z" stroke="white" stroke-width="0.202354"/>
<path id="Vector_73" d="M94.5688 8.12907C94.5296 8.05733 94.4949 7.95191 94.4644 7.81279C94.2623 8.06712 93.9797 8.19428 93.6167 8.19428C93.2841 8.19428 93.0015 8.09429 92.7689 7.8943C92.5363 7.69215 92.42 7.43891 92.42 7.13459C92.42 6.75201 92.5613 6.4629 92.8439 6.26727C93.1265 6.07163 93.5373 5.97381 94.0764 5.97381H94.4155V5.78796C94.4155 5.46407 94.2753 5.30213 93.9949 5.30213C93.734 5.30213 93.6036 5.43038 93.6036 5.68688H92.5048C92.5048 5.34561 92.6494 5.06846 92.9385 4.85543C93.2297 4.6424 93.6004 4.53589 94.0503 4.53589C94.5003 4.53589 94.8557 4.64566 95.1165 4.86521C95.3774 5.08476 95.5111 5.38582 95.5176 5.7684V7.33022C95.5219 7.65411 95.5719 7.90191 95.6676 8.07364V8.12907H94.5688ZM93.8808 7.41174C94.0177 7.41174 94.1308 7.38239 94.2199 7.3237C94.3112 7.26501 94.3764 7.19871 94.4155 7.1248V6.56072H94.096C93.7134 6.56072 93.5221 6.73245 93.5221 7.07589C93.5221 7.17589 93.5558 7.2574 93.6232 7.32044C93.6906 7.3813 93.7764 7.41174 93.8808 7.41174Z" stroke="white" stroke-width="0.202354"/>
<path id="Vector_74" d="M97.1381 4.6011L97.174 5.0152C97.4174 4.69566 97.7533 4.53589 98.1815 4.53589C98.5489 4.53589 98.8228 4.64566 99.0032 4.86521C99.1858 5.08476 99.2803 5.41517 99.2868 5.85643V8.12907H98.1848V5.90208C98.1848 5.72383 98.1489 5.59341 98.0772 5.51081C98.0054 5.42603 97.875 5.38365 97.6859 5.38365C97.4707 5.38365 97.3109 5.46842 97.2066 5.63797V8.12907H96.1078V4.6011H97.1381Z" stroke="white" stroke-width="0.202354"/>
<path id="Vector_75" d="M99.7596 6.33906C99.7596 5.78041 99.8803 5.34023 100.122 5.01852C100.363 4.69681 100.7 4.53595 101.132 4.53595C101.448 4.53595 101.713 4.65985 101.928 4.90766V3.12085H103.03V8.12913H102.042L101.987 7.7509C101.761 8.04652 101.474 8.19434 101.126 8.19434C100.706 8.19434 100.374 8.03348 100.128 7.71177C99.8824 7.39006 99.7596 6.93249 99.7596 6.33906ZM100.858 6.40753C100.858 7.03357 101.041 7.34658 101.406 7.34658C101.65 7.34658 101.824 7.24442 101.928 7.04009V5.69672C101.828 5.48805 101.656 5.38371 101.413 5.38371C101.074 5.38371 100.89 5.6576 100.862 6.20538L100.858 6.40753Z" stroke="white" stroke-width="0.202354"/>
<path id="Vector_76" d="M105.642 8.12907C105.603 8.05733 105.568 7.95191 105.537 7.81279C105.335 8.06712 105.053 8.19428 104.69 8.19428C104.357 8.19428 104.074 8.09429 103.842 7.8943C103.609 7.69215 103.493 7.43891 103.493 7.13459C103.493 6.75201 103.634 6.4629 103.917 6.26727C104.199 6.07163 104.61 5.97381 105.149 5.97381H105.488V5.78796C105.488 5.46407 105.348 5.30213 105.068 5.30213C104.807 5.30213 104.677 5.43038 104.677 5.68688H103.578C103.578 5.34561 103.722 5.06846 104.011 4.85543C104.303 4.6424 104.673 4.53589 105.123 4.53589C105.573 4.53589 105.929 4.64566 106.19 4.86521C106.45 5.08476 106.584 5.38582 106.591 5.7684V7.33022C106.595 7.65411 106.645 7.90191 106.741 8.07364V8.12907H105.642ZM104.954 7.41174C105.091 7.41174 105.204 7.38239 105.293 7.3237C105.384 7.26501 105.449 7.19871 105.488 7.1248V6.56072H105.169C104.786 6.56072 104.595 6.73245 104.595 7.07589C104.595 7.17589 104.629 7.2574 104.696 7.32044C104.764 7.3813 104.849 7.41174 104.954 7.41174Z" stroke="white" stroke-width="0.202354"/>
<path id="Vector_77" d="M109.336 5.59558L108.974 5.5695C108.628 5.5695 108.407 5.67819 108.309 5.89556V8.12907H107.21V4.6011H108.24L108.276 5.05433C108.461 4.7087 108.719 4.53589 109.049 4.53589C109.166 4.53589 109.269 4.54893 109.356 4.57502L109.336 5.59558Z" stroke="white" stroke-width="0.202354"/>
<path id="Vector_78" d="M59.4815 14.5183V16.1291H58.337V11.3816H60.2314C60.5945 11.3816 60.9151 11.449 61.1933 11.5838C61.4737 11.7164 61.69 11.9066 61.8422 12.1544C61.9965 12.4 62.0737 12.6794 62.0737 12.9924C62.0737 13.4554 61.9074 13.826 61.5748 14.1042C61.2444 14.3803 60.7901 14.5183 60.2119 14.5183H59.4815ZM59.4815 13.6347H60.2314C60.4532 13.6347 60.6216 13.5793 60.7368 13.4684C60.8542 13.3576 60.9129 13.2011 60.9129 12.9989C60.9129 12.7772 60.8531 12.6 60.7336 12.4674C60.614 12.3348 60.451 12.2674 60.2445 12.2653H59.4815V13.6347Z" stroke="white" stroke-width="0.202354"/>
<path id="Vector_79" d="M64.2974 16.1943C63.7561 16.1943 63.3181 16.0334 62.9834 15.7117C62.6486 15.3878 62.4813 14.9672 62.4813 14.4499V14.3586C62.4813 13.9977 62.5476 13.6793 62.6801 13.4032C62.8149 13.1271 63.0106 12.9141 63.2671 12.7641C63.5236 12.612 63.8279 12.5359 64.18 12.5359C64.6756 12.5359 65.0669 12.6902 65.3538 12.9989C65.6408 13.3054 65.7842 13.7336 65.7842 14.2836V14.7107H63.5996C63.6388 14.9085 63.7246 15.0639 63.8572 15.177C63.9898 15.29 64.1615 15.3465 64.3724 15.3465C64.7202 15.3465 64.9919 15.2248 65.1875 14.9813L65.6897 15.5748C65.5527 15.7639 65.3582 15.915 65.106 16.028C64.8561 16.1388 64.5865 16.1943 64.2974 16.1943ZM64.1735 13.3836C63.8518 13.3836 63.6605 13.5967 63.5996 14.0227H64.7082V13.9379C64.7126 13.7619 64.668 13.626 64.5746 13.5304C64.4811 13.4326 64.3474 13.3836 64.1735 13.3836Z" stroke="white" stroke-width="0.202354"/>
<path id="Vector_80" d="M67.2678 12.6011L67.3037 13.0152C67.5537 12.6957 67.8895 12.5359 68.3112 12.5359C68.7568 12.5359 69.0579 12.7131 69.2144 13.0674C69.4535 12.7131 69.7991 12.5359 70.2512 12.5359C70.9664 12.5359 71.3338 12.9685 71.3533 13.8336V16.1291H70.2512V13.9021C70.2512 13.7217 70.2208 13.5902 70.16 13.5075C70.0991 13.4249 69.9882 13.3836 69.8274 13.3836C69.61 13.3836 69.4481 13.4804 69.3415 13.6738L69.3448 13.7195V16.1291H68.2427V13.9086C68.2427 13.7238 68.2134 13.5902 68.1547 13.5075C68.096 13.4249 67.984 13.3836 67.8188 13.3836C67.608 13.3836 67.4471 13.4804 67.3363 13.6738V16.1291H66.2375V12.6011H67.2678Z" stroke="white" stroke-width="0.202354"/>
<path id="Vector_81" d="M75.2563 14.3944C75.2563 14.9726 75.1367 15.4172 74.8976 15.728C74.6585 16.0389 74.3216 16.1943 73.8868 16.1943C73.5281 16.1943 73.239 16.0519 73.0195 15.7671L72.9738 16.1291H71.9891V11.1208H73.088V12.8848C73.2923 12.6522 73.5564 12.5359 73.8803 12.5359C74.3194 12.5359 74.6585 12.6935 74.8976 13.0087C75.1367 13.3239 75.2563 13.7673 75.2563 14.339V14.3944ZM74.1542 14.326C74.1542 13.9869 74.1085 13.7456 74.0172 13.6021C73.9281 13.4565 73.7901 13.3836 73.6031 13.3836C73.3553 13.3836 73.1836 13.4782 73.088 13.6673V15.0694C73.1814 15.2563 73.3553 15.3498 73.6097 15.3498C73.8683 15.3498 74.0325 15.2237 74.102 14.9716C74.1368 14.8477 74.1542 14.6325 74.1542 14.326Z" stroke="white" stroke-width="0.202354"/>
<path id="Vector_82" d="M77.7311 16.1291C77.6919 16.0573 77.6571 15.9519 77.6267 15.8128C77.4246 16.0671 77.142 16.1943 76.779 16.1943C76.4464 16.1943 76.1638 16.0943 75.9312 15.8943C75.6986 15.6921 75.5823 15.4389 75.5823 15.1346C75.5823 14.752 75.7236 14.4629 76.0062 14.2673C76.2888 14.0716 76.6996 13.9738 77.2387 13.9738H77.5778V13.788C77.5778 13.4641 77.4376 13.3021 77.1572 13.3021C76.8963 13.3021 76.7659 13.4304 76.7659 13.6869H75.6671C75.6671 13.3456 75.8116 13.0685 76.1008 12.8554C76.392 12.6424 76.7627 12.5359 77.2126 12.5359C77.6626 12.5359 78.018 12.6457 78.2788 12.8652C78.5397 13.0848 78.6734 13.3858 78.6799 13.7684V15.3302C78.6842 15.6541 78.7342 15.9019 78.8299 16.0736V16.1291H77.7311ZM77.0431 15.4117C77.18 15.4117 77.293 15.3824 77.3822 15.3237C77.4735 15.265 77.5387 15.1987 77.5778 15.1248V14.5607H77.2583C76.8757 14.5607 76.6844 14.7324 76.6844 15.0759C76.6844 15.1759 76.7181 15.2574 76.7855 15.3204C76.8529 15.3813 76.9387 15.4117 77.0431 15.4117Z" stroke="white" stroke-width="0.202354"/>
<path id="Vector_83" d="M80.6493 14.5901L81.2362 12.6011H82.4133L80.9753 16.7192L80.9134 16.8692C80.7091 17.3257 80.3482 17.5539 79.8309 17.5539C79.6874 17.5539 79.5363 17.5322 79.3777 17.4887V16.7029H79.5211C79.6755 16.7029 79.7928 16.6801 79.8733 16.6345C79.9559 16.591 80.0167 16.5116 80.0559 16.3964L80.1439 16.1617L78.9179 12.6011H80.0917L80.6493 14.5901Z" stroke="white" stroke-width="0.202354"/>
<path id="Vector_84" d="M84.637 16.1291C84.5979 16.0573 84.5631 15.9519 84.5327 15.8128C84.3305 16.0671 84.0479 16.1943 83.6849 16.1943C83.3523 16.1943 83.0697 16.0943 82.8371 15.8943C82.6046 15.6921 82.4883 15.4389 82.4883 15.1346C82.4883 14.752 82.6296 14.4629 82.9121 14.2673C83.1947 14.0716 83.6056 13.9738 84.1446 13.9738H84.4837V13.788C84.4837 13.4641 84.3435 13.3021 84.0631 13.3021C83.8023 13.3021 83.6719 13.4304 83.6719 13.6869H82.573C82.573 13.3456 82.7176 13.0685 83.0067 12.8554C83.298 12.6424 83.6686 12.5359 84.1186 12.5359C84.5685 12.5359 84.9239 12.6457 85.1848 12.8652C85.4456 13.0848 85.5793 13.3858 85.5858 13.7684V15.3302C85.5902 15.6541 85.6402 15.9019 85.7358 16.0736V16.1291H84.637ZM83.949 15.4117C84.086 15.4117 84.199 15.3824 84.2881 15.3237C84.3794 15.265 84.4446 15.1987 84.4837 15.1248V14.5607H84.1642C83.7816 14.5607 83.5903 14.7324 83.5903 15.0759C83.5903 15.1759 83.624 15.2574 83.6914 15.3204C83.7588 15.3813 83.8447 15.4117 83.949 15.4117Z" stroke="white" stroke-width="0.202354"/>
<path id="Vector_85" d="M88.3312 13.5956L87.9693 13.5695C87.6237 13.5695 87.402 13.6782 87.3042 13.8956V16.1291H86.2053V12.6011H87.2357L87.2716 13.0543C87.4563 12.7087 87.7139 12.5359 88.0443 12.5359C88.1617 12.5359 88.2639 12.5489 88.3508 12.575L88.3312 13.5956Z" stroke="white" stroke-width="0.202354"/>
<path id="Vector_86" d="M90.6169 16.1291C90.5778 16.0573 90.543 15.9519 90.5126 15.8128C90.3104 16.0671 90.0278 16.1943 89.6648 16.1943C89.3322 16.1943 89.0497 16.0943 88.8171 15.8943C88.5845 15.6921 88.4682 15.4389 88.4682 15.1346C88.4682 14.752 88.6095 14.4629 88.8921 14.2673C89.1747 14.0716 89.5855 13.9738 90.1246 13.9738H90.4637V13.788C90.4637 13.4641 90.3235 13.3021 90.0431 13.3021C89.7822 13.3021 89.6518 13.4304 89.6518 13.6869H88.553C88.553 13.3456 88.6975 13.0685 88.9866 12.8554C89.2779 12.6424 89.6485 12.5359 90.0985 12.5359C90.5484 12.5359 90.9039 12.6457 91.1647 12.8652C91.4255 13.0848 91.5592 13.3858 91.5658 13.7684V15.3302C91.5701 15.6541 91.6201 15.9019 91.7157 16.0736V16.1291H90.6169ZM89.9289 15.4117C90.0659 15.4117 90.1789 15.3824 90.268 15.3237C90.3593 15.265 90.4245 15.1987 90.4637 15.1248V14.5607H90.1441C89.7616 14.5607 89.5703 14.7324 89.5703 15.0759C89.5703 15.1759 89.604 15.2574 89.6713 15.3204C89.7387 15.3813 89.8246 15.4117 89.9289 15.4117Z" stroke="white" stroke-width="0.202354"/>
<path id="Vector_87" d="M93.1863 12.6011L93.2221 13.0152C93.4656 12.6957 93.8014 12.5359 94.2297 12.5359C94.597 12.5359 94.8709 12.6457 95.0513 12.8652C95.2339 13.0848 95.3285 13.4152 95.335 13.8564V16.1291H94.2329V13.9021C94.2329 13.7238 94.1971 13.5934 94.1253 13.5108C94.0536 13.426 93.9232 13.3836 93.7341 13.3836C93.5189 13.3836 93.3591 13.4684 93.2547 13.638V16.1291H92.1559V12.6011H93.1863Z" stroke="white" stroke-width="0.202354"/>
<path id="Vector_88" d="M101.625 16.1291H100.487L98.8043 13.175V16.1291H97.6598V11.3816H98.8043L100.483 14.3357V11.3816H101.625V16.1291Z" stroke="white" stroke-width="0.202354"/>
<path id="Vector_89" d="M104.285 16.1291C104.246 16.0573 104.211 15.9519 104.181 15.8128C103.979 16.0671 103.696 16.1943 103.333 16.1943C103.001 16.1943 102.718 16.0943 102.485 15.8943C102.253 15.6921 102.137 15.4389 102.137 15.1346C102.137 14.752 102.278 14.4629 102.56 14.2673C102.843 14.0716 103.254 13.9738 103.793 13.9738H104.132V13.788C104.132 13.4641 103.992 13.3021 103.711 13.3021C103.451 13.3021 103.32 13.4304 103.32 13.6869H102.221C102.221 13.3456 102.366 13.0685 102.655 12.8554C102.946 12.6424 103.317 12.5359 103.767 12.5359C104.217 12.5359 104.572 12.6457 104.833 12.8652C105.094 13.0848 105.228 13.3858 105.234 13.7684V15.3302C105.239 15.6541 105.289 15.9019 105.384 16.0736V16.1291H104.285ZM103.597 15.4117C103.734 15.4117 103.847 15.3824 103.936 15.3237C104.028 15.265 104.093 15.1987 104.132 15.1248V14.5607H103.813C103.43 14.5607 103.239 14.7324 103.239 15.0759C103.239 15.1759 103.272 15.2574 103.34 15.3204C103.407 15.3813 103.493 15.4117 103.597 15.4117Z" stroke="white" stroke-width="0.202354"/>
<path id="Vector_90" d="M107.693 15.1378C107.693 15.0444 107.644 14.9694 107.546 14.9129C107.448 14.8563 107.262 14.7977 106.988 14.7368C106.714 14.6759 106.488 14.5966 106.31 14.4988C106.132 14.3988 105.996 14.2781 105.903 14.1368C105.809 13.9956 105.762 13.8336 105.762 13.651C105.762 13.3271 105.896 13.0608 106.163 12.8522C106.431 12.6413 106.781 12.5359 107.213 12.5359C107.679 12.5359 108.052 12.6413 108.335 12.8522C108.618 13.063 108.759 13.3402 108.759 13.6836H107.657C107.657 13.401 107.508 13.2597 107.21 13.2597C107.095 13.2597 106.998 13.2923 106.92 13.3576C106.842 13.4206 106.803 13.4999 106.803 13.5956C106.803 13.6934 106.85 13.7727 106.946 13.8336C107.042 13.8945 107.194 13.9445 107.402 13.9836C107.613 14.0227 107.798 14.0695 107.957 14.1238C108.487 14.3064 108.752 14.6335 108.752 15.1052C108.752 15.427 108.609 15.6889 108.322 15.891C108.037 16.0932 107.668 16.1943 107.213 16.1943C106.911 16.1943 106.642 16.1399 106.405 16.0312C106.168 15.9226 105.983 15.7747 105.85 15.5878C105.718 15.4009 105.652 15.2041 105.652 14.9976H106.679C106.683 15.1607 106.737 15.2802 106.842 15.3563C106.946 15.4302 107.08 15.4672 107.243 15.4672C107.393 15.4672 107.505 15.4367 107.579 15.3759C107.655 15.315 107.693 15.2357 107.693 15.1378Z" stroke="white" stroke-width="0.202354"/>
<path id="Vector_91" d="M110.428 16.1291H109.326V12.6011H110.428V16.1291ZM109.261 11.6914C109.261 11.5349 109.318 11.4066 109.431 11.3066C109.544 11.2067 109.69 11.1567 109.871 11.1567C110.051 11.1567 110.198 11.2067 110.311 11.3066C110.424 11.4066 110.48 11.5349 110.48 11.6914C110.48 11.8479 110.424 11.9762 110.311 12.0761C110.198 12.1761 110.051 12.2261 109.871 12.2261C109.69 12.2261 109.544 12.1761 109.431 12.0761C109.318 11.9762 109.261 11.8479 109.261 11.6914Z" stroke="white" stroke-width="0.202354"/>
<path id="Vector_92" d="M110.97 14.3325C110.97 13.9803 111.038 13.6673 111.175 13.3934C111.312 13.1174 111.509 12.9054 111.765 12.7576C112.022 12.6098 112.323 12.5359 112.668 12.5359C113.197 12.5359 113.613 12.7 113.917 13.0282C114.221 13.3543 114.374 13.7988 114.374 14.3618V14.401C114.374 14.9509 114.22 15.3878 113.914 15.7117C113.61 16.0334 113.197 16.1943 112.675 16.1943C112.173 16.1943 111.769 16.0443 111.465 15.7443C111.161 15.4422 110.997 15.0335 110.973 14.5183L110.97 14.3325ZM112.068 14.401C112.068 14.727 112.119 14.9661 112.222 15.1183C112.324 15.2704 112.475 15.3465 112.675 15.3465C113.066 15.3465 113.266 15.0455 113.275 14.4433V14.3325C113.275 13.6999 113.073 13.3836 112.668 13.3836C112.301 13.3836 112.102 13.6564 112.072 14.2021L112.068 14.401Z" stroke="white" stroke-width="0.202354"/>
<path id="Vector_93" d="M115.867 12.6011L115.903 13.0152C116.146 12.6957 116.482 12.5359 116.91 12.5359C117.278 12.5359 117.552 12.6457 117.732 12.8652C117.915 13.0848 118.009 13.4152 118.016 13.8564V16.1291H116.914V13.9021C116.914 13.7238 116.878 13.5934 116.806 13.5108C116.734 13.426 116.604 13.3836 116.415 13.3836C116.2 13.3836 116.04 13.4684 115.935 13.638V16.1291H114.837V12.6011H115.867Z" stroke="white" stroke-width="0.202354"/>
<path id="Vector_94" d="M120.614 16.1291C120.575 16.0573 120.54 15.9519 120.51 15.8128C120.308 16.0671 120.025 16.1943 119.662 16.1943C119.33 16.1943 119.047 16.0943 118.815 15.8943C118.582 15.6921 118.466 15.4389 118.466 15.1346C118.466 14.752 118.607 14.4629 118.89 14.2673C119.172 14.0716 119.583 13.9738 120.122 13.9738H120.461V13.788C120.461 13.4641 120.321 13.3021 120.041 13.3021C119.78 13.3021 119.649 13.4304 119.649 13.6869H118.55C118.55 13.3456 118.695 13.0685 118.984 12.8554C119.275 12.6424 119.646 12.5359 120.096 12.5359C120.546 12.5359 120.901 12.6457 121.162 12.8652C121.423 13.0848 121.557 13.3858 121.563 13.7684V15.3302C121.568 15.6541 121.618 15.9019 121.713 16.0736V16.1291H120.614ZM119.926 15.4117C120.063 15.4117 120.176 15.3824 120.266 15.3237C120.357 15.265 120.422 15.1987 120.461 15.1248V14.5607H120.142C119.759 14.5607 119.568 14.7324 119.568 15.0759C119.568 15.1759 119.601 15.2574 119.669 15.3204C119.736 15.3813 119.822 15.4117 119.926 15.4117Z" stroke="white" stroke-width="0.202354"/>
<path id="Vector_95" d="M123.334 16.1291H122.232V11.1208H123.334V16.1291Z" stroke="white" stroke-width="0.202354"/>
</g>
</g>
<defs>
<clipPath id="clip0_22_951">
<rect width="125" height="21" fill="white" transform="translate(0 0.499756)"/>
</clipPath>
</defs>
</svg>
