<svg width="18" height="19" viewBox="0 0 18 19" fill="none" xmlns="http://www.w3.org/2000/svg">
<g id="bx:bx-time-five">
<path id="Vector" d="M8.88039 2.37866C4.82034 2.37866 1.51721 5.70162 1.51721 9.78607C1.51721 13.8705 4.82034 17.1935 8.88039 17.1935C12.9405 17.1935 16.2436 13.8705 16.2436 9.78607C16.2436 5.70162 12.9405 2.37866 8.88039 2.37866ZM8.88039 15.712C5.63249 15.712 2.98985 13.0535 2.98985 9.78607C2.98985 6.51866 5.63249 3.86014 8.88039 3.86014C12.1283 3.86014 14.7709 6.51866 14.7709 9.78607C14.7709 13.0535 12.1283 15.712 8.88039 15.712Z" fill="white"/>
<path id="Vector_2" d="M9.6168 6.07788H8.14417V10.0883L10.5689 12.5275L11.61 11.4801L9.6168 9.47492V6.07788Z" fill="white"/>
</g>
</svg>
