<svg width="18" height="16" viewBox="0 0 18 16" fill="none" xmlns="http://www.w3.org/2000/svg">
<path id="Vector" d="M17.78 6.2217V2.6657C17.78 1.67891 16.9799 0.887695 16.002 0.887695H1.778C0.8001 0.887695 0.00888999 1.67891 0.00888999 2.6657V6.2217C0.98679 6.2217 1.778 7.0218 1.778 7.9997C1.778 8.9776 0.98679 9.7777 0 9.7777V13.3337C0 14.3116 0.8001 15.1117 1.778 15.1117H16.002C16.9799 15.1117 17.78 14.3116 17.78 13.3337V9.7777C16.8021 9.7777 16.002 8.9776 16.002 7.9997C16.002 7.0218 16.8021 6.2217 17.78 6.2217ZM16.002 4.92376C14.9441 5.53717 14.224 6.69287 14.224 7.9997C14.224 9.30653 14.9441 10.4622 16.002 11.0756V13.3337H1.778V11.0756C2.83591 10.4622 3.556 9.30653 3.556 7.9997C3.556 6.68398 2.8448 5.53717 1.78689 4.92376L1.778 2.6657H16.002V4.92376ZM8.001 10.6667H9.779V12.4447H8.001V10.6667ZM8.001 7.1107H9.779V8.8887H8.001V7.1107ZM8.001 3.5547H9.779V5.3327H8.001V3.5547Z" fill="white"/>
</svg>
