<svg width="18" height="15" viewBox="0 0 18 15" fill="none" xmlns="http://www.w3.org/2000/svg">
<path id="Vector" d="M17.78 5.334V1.778C17.78 0.8001 16.9799 0 16.002 0H1.778C0.8001 0 0.00888999 0.8001 0.00888999 1.778V5.334C0.98679 5.334 1.778 6.1341 1.778 7.112C1.778 8.0899 0.98679 8.89 0 8.89V12.446C0 13.4239 0.8001 14.224 1.778 14.224H16.002C16.9799 14.224 17.78 13.4239 17.78 12.446V8.89C16.8021 8.89 16.002 8.0899 16.002 7.112C16.002 6.1341 16.8021 5.334 17.78 5.334ZM16.002 4.03606C14.9441 4.64947 14.224 5.80517 14.224 7.112C14.224 8.41883 14.9441 9.57453 16.002 10.1879V12.446H1.778V10.1879C2.83591 9.57453 3.556 8.41883 3.556 7.112C3.556 5.79628 2.8448 4.64947 1.78689 4.03606L1.778 1.778H16.002V4.03606ZM6.28523 10.668L8.89 8.99668L11.4948 10.668L10.7036 7.68096L13.095 5.72516L10.0101 5.53847L8.89 2.667L7.76097 5.52958L4.67614 5.71627L7.06755 7.67207L6.28523 10.668Z" fill="white"/>
</svg>
