<svg width="16" height="18" viewBox="0 0 16 18" fill="none" xmlns="http://www.w3.org/2000/svg">
<path id="Vector" d="M0 16.1131C0 17.0334 0.746621 17.78 1.66688 17.78H13.8906C14.8109 17.78 15.5575 17.0334 15.5575 16.1131V6.6675H0V16.1131ZM11.1125 9.30672C11.1125 9.07752 11.3 8.89 11.5292 8.89H12.9183C13.1475 8.89 13.335 9.07752 13.335 9.30672V10.6958C13.335 10.925 13.1475 11.1125 12.9183 11.1125H11.5292C11.3 11.1125 11.1125 10.925 11.1125 10.6958V9.30672ZM11.1125 13.7517C11.1125 13.5225 11.3 13.335 11.5292 13.335H12.9183C13.1475 13.335 13.335 13.5225 13.335 13.7517V15.1408C13.335 15.37 13.1475 15.5575 12.9183 15.5575H11.5292C11.3 15.5575 11.1125 15.37 11.1125 15.1408V13.7517ZM6.6675 9.30672C6.6675 9.07752 6.85502 8.89 7.08422 8.89H8.47328C8.70248 8.89 8.89 9.07752 8.89 9.30672V10.6958C8.89 10.925 8.70248 11.1125 8.47328 11.1125H7.08422C6.85502 11.1125 6.6675 10.925 6.6675 10.6958V9.30672ZM6.6675 13.7517C6.6675 13.5225 6.85502 13.335 7.08422 13.335H8.47328C8.70248 13.335 8.89 13.5225 8.89 13.7517V15.1408C8.89 15.37 8.70248 15.5575 8.47328 15.5575H7.08422C6.85502 15.5575 6.6675 15.37 6.6675 15.1408V13.7517ZM2.2225 9.30672C2.2225 9.07752 2.41002 8.89 2.63922 8.89H4.02828C4.25748 8.89 4.445 9.07752 4.445 9.30672V10.6958C4.445 10.925 4.25748 11.1125 4.02828 11.1125H2.63922C2.41002 11.1125 2.2225 10.925 2.2225 10.6958V9.30672ZM2.2225 13.7517C2.2225 13.5225 2.41002 13.335 2.63922 13.335H4.02828C4.25748 13.335 4.445 13.5225 4.445 13.7517V15.1408C4.445 15.37 4.25748 15.5575 4.02828 15.5575H2.63922C2.41002 15.5575 2.2225 15.37 2.2225 15.1408V13.7517ZM13.8906 2.2225H12.2237V0.555625C12.2237 0.250031 11.9737 0 11.6681 0H10.5569C10.2513 0 10.0012 0.250031 10.0012 0.555625V2.2225H5.55625V0.555625C5.55625 0.250031 5.30622 0 5.00062 0H3.88937C3.58378 0 3.33375 0.250031 3.33375 0.555625V2.2225H1.66688C0.746621 2.2225 0 2.96912 0 3.88938V5.55625H15.5575V3.88938C15.5575 2.96912 14.8109 2.2225 13.8906 2.2225Z" fill="white"/>
</svg>
