<svg width="18" height="18" viewBox="0 0 18 18" fill="none" xmlns="http://www.w3.org/2000/svg">
<g id="carbon:location-filled">
<path id="Vector" d="M8.83635 1.10938C7.22584 1.11129 5.68184 1.75575 4.54304 2.90139C3.40424 4.04703 2.76363 5.6003 2.76173 7.22049C2.7598 8.5445 3.1897 9.83259 3.98549 10.8872C3.98549 10.8872 4.15116 11.1066 4.17822 11.1383L8.83635 16.6649L13.4967 11.1355C13.521 11.106 13.6872 10.8872 13.6872 10.8872L13.6878 10.8855C14.4832 9.83138 14.9129 8.54389 14.911 7.22049C14.9091 5.6003 14.2685 4.04703 13.1297 2.90139C11.9909 1.75575 10.4469 1.11129 8.83635 1.10938ZM8.83635 9.44271C8.39946 9.44271 7.97238 9.31238 7.60912 9.06819C7.24586 8.82401 6.96273 8.47695 6.79554 8.07089C6.62835 7.66483 6.58461 7.21802 6.66984 6.78695C6.75507 6.35588 6.96546 5.95992 7.27438 5.64914C7.58331 5.33835 7.97691 5.12671 8.40541 5.04096C8.8339 4.95522 9.27805 4.99922 9.68168 5.16742C10.0853 5.33561 10.4303 5.62044 10.673 5.98589C10.9158 6.35133 11.0453 6.78097 11.0453 7.22049C11.0446 7.80963 10.8116 8.37443 10.3975 8.79102C9.98341 9.20761 9.42198 9.44197 8.83635 9.44271Z" fill="white"/>
</g>
</svg>
