<svg width="21" height="20" viewBox="0 0 21 20" fill="none" xmlns="http://www.w3.org/2000/svg">
<path id="Vector" d="M19.666 10.8589H10.8244L16.7127 16.8174C16.9378 17.0452 17.3081 17.0636 17.5395 16.8431C18.9815 15.4683 19.9734 13.6151 20.2644 11.5319C20.3144 11.1752 20.0219 10.8589 19.666 10.8589V10.8589ZM19.0762 8.41562C18.7691 3.91137 15.2122 0.312053 10.761 0.00136342C10.4212 -0.0223907 10.135 0.267561 10.135 0.612185V9.04906H18.4729C18.8135 9.04906 19.0997 8.75949 19.0762 8.41562ZM8.34652 10.8589V1.91188C8.34652 1.55179 8.03391 1.25581 7.68179 1.30633C3.24141 1.94129 -0.152688 5.86676 0.00529796 10.5712C0.167756 15.4027 4.27875 19.3648 9.0556 19.3041C10.9335 19.2803 12.6688 18.668 14.0955 17.6439C14.3899 17.4328 14.4092 16.9943 14.154 16.736L8.34652 10.8589Z" fill="white"/>
</svg>
