<svg width="18" height="13" viewBox="0 0 18 13" fill="none" xmlns="http://www.w3.org/2000/svg">
<path id="Vector" d="M8.89 1.61636C11.953 1.61636 14.6847 3.33779 16.0182 6.06136C14.6847 8.78494 11.953 10.5064 8.89 10.5064C5.82699 10.5064 3.09534 8.78494 1.76184 6.06136C3.09534 3.33779 5.82699 1.61636 8.89 1.61636ZM8.89 0C4.84909 0 1.39815 2.51345 0 6.06136C1.39815 9.60928 4.84909 12.1227 8.89 12.1227C12.9309 12.1227 16.3818 9.60928 17.78 6.06136C16.3818 2.51345 12.9309 0 8.89 0ZM8.89 4.04091C10.0053 4.04091 10.9105 4.94607 10.9105 6.06136C10.9105 7.17665 10.0053 8.08182 8.89 8.08182C7.77471 8.08182 6.86955 7.17665 6.86955 6.06136C6.86955 4.94607 7.77471 4.04091 8.89 4.04091ZM8.89 2.42455C6.88571 2.42455 5.25318 4.05707 5.25318 6.06136C5.25318 8.06565 6.88571 9.69818 8.89 9.69818C10.8943 9.69818 12.5268 8.06565 12.5268 6.06136C12.5268 4.05707 10.8943 2.42455 8.89 2.42455Z" fill="white"/>
</svg>
