<svg width="21" height="25" viewBox="0 0 21 25" fill="none" xmlns="http://www.w3.org/2000/svg">
<path id="Vector" d="M6.33398 3.51562C6.33398 1.57397 8.03545 0 10.1344 0C12.2333 0 13.9348 1.57397 13.9348 3.51562C13.9348 5.45723 12.2333 7.03125 10.1344 7.03125C8.03545 7.03125 6.33398 5.45723 6.33398 3.51562ZM19.774 3.58267C19.1144 2.97246 18.045 2.97246 17.3854 3.58267L12.8129 7.8125H7.45584L2.88338 3.58267C2.2238 2.97246 1.1543 2.97246 0.494724 3.58267C-0.164908 4.19287 -0.164908 5.18218 0.494724 5.79238L5.48945 10.4128V23.4375C5.48945 24.3004 6.24567 25 7.17851 25H8.02305C8.95588 25 9.71211 24.3004 9.71211 23.4375V17.9688H10.5566V23.4375C10.5566 24.3004 11.3129 25 12.2457 25H13.0902C14.0231 25 14.7793 24.3004 14.7793 23.4375V10.4128L19.774 5.79233C20.4337 5.18213 20.4337 4.19287 19.774 3.58267V3.58267Z" fill="white"/>
</svg>
