<svg width="80" height="63" viewBox="0 0 80 63" fill="none" xmlns="http://www.w3.org/2000/svg">
<path id="Vector" d="M66.6667 53.3333V55.5556C66.6667 59.2375 63.6819 62.2222 60 62.2222H6.66667C2.98472 62.2222 0 59.2375 0 55.5556V20C0 16.3181 2.98472 13.3333 6.66667 13.3333H8.88889V42.2222C8.88889 48.3489 13.8733 53.3333 20 53.3333H66.6667ZM80 42.2222V6.66667C80 2.98472 77.0153 0 73.3333 0H20C16.3181 0 13.3333 2.98472 13.3333 6.66667V42.2222C13.3333 45.9042 16.3181 48.8889 20 48.8889H73.3333C77.0153 48.8889 80 45.9042 80 42.2222ZM35.5556 13.3333C35.5556 17.0153 32.5708 20 28.8889 20C25.2069 20 22.2222 17.0153 22.2222 13.3333C22.2222 9.65139 25.2069 6.66667 28.8889 6.66667C32.5708 6.66667 35.5556 9.65139 35.5556 13.3333ZM22.2222 33.3333L29.9326 25.6229C30.5835 24.9721 31.6388 24.9721 32.2897 25.6229L37.7778 31.1111L56.5993 12.2896C57.2501 11.6387 58.3054 11.6387 58.9564 12.2896L71.1111 24.4444V40H22.2222V33.3333Z" fill="white"/>
</svg>
